<svg width="361" height="58" viewBox="0 0 361 58" fill="none" xmlns="http://www.w3.org/2000/svg">
<mask id="path-1-inside-1_204_1563" fill="white">
<path d="M0 5H274V58H0V5Z"/>
</mask>
<path d="M274 57H0V59H274V57Z" fill="#CECECE" mask="url(#path-1-inside-1_204_1563)"/>
<g clip-path="url(#clip0_204_1563)">
<path d="M15.9772 25.0919C16.8928 24.8599 17.5203 24.0536 17.5777 23.0347C17.6357 21.997 17.0549 21.0737 16.1499 20.7441L14.3414 20.0257C7.77424 17.3846 7.74688 17.3846 7.31606 17.3794C6.60656 17.3436 5.94902 17.7058 5.5289 18.3488C5.52828 18.3501 5.52757 18.3514 5.52687 18.3527C4.71999 19.6075 4.55862 22.9937 4.75594 24.8598C4.848 25.6757 4.99804 26.2662 5.21139 26.6589C5.56946 27.3266 6.21035 27.7388 6.9125 27.7616C6.95853 27.7642 6.99987 27.7668 7.04324 27.7668C7.42335 27.7668 7.99016 27.5919 13.4244 25.8884C15.2616 25.3169 15.8018 25.1485 15.9772 25.0919Z" fill="#1C1C1C"/>
<path d="M19.1429 26.3747C18.1552 26.0028 17.0769 26.2512 16.4701 26.9839C16.4693 26.9839 15.335 28.2999 15.2197 28.4293C15.2144 28.4352 15.209 28.4411 15.2037 28.4476C10.6084 33.7056 10.5963 33.7401 10.4523 34.1452C10.3476 34.4196 10.3109 34.7121 10.3436 34.9749C10.3823 35.3702 10.551 35.7466 10.8484 36.0977C11.9147 37.3396 16.3687 39.0002 18.4286 39.0002C18.59 39.0002 18.7366 38.9897 18.8661 38.9683C19.6336 38.8298 20.2157 38.376 20.4625 37.7232C20.4632 37.7194 20.4646 37.7161 20.4659 37.7128C20.6073 37.3194 20.6152 37.2954 20.632 31.1076C20.632 31.1076 20.6459 28.6381 20.6493 28.5049C20.7074 27.577 20.1158 26.7401 19.1429 26.3747Z" fill="#1C1C1C"/>
<path d="M34.571 27.4094C34.2269 27.1584 34.2135 27.1494 28.1791 25.2183C28.1791 25.2183 25.8724 24.4751 25.6524 24.3984C25.6503 24.3977 25.649 24.3971 25.6471 24.3964C24.7595 24.0602 23.7618 24.3548 23.1076 25.1415C22.4348 25.9419 22.3488 27.0238 22.8829 27.8177L23.9012 29.4346C27.6122 35.3117 27.6556 35.3455 27.9944 35.603C28.3398 35.8663 28.7499 36.0003 29.1807 36.0003C29.4568 36.0003 29.7409 35.9456 30.023 35.8338C31.6928 35.1842 35.0418 31.0321 35.2959 29.2955C35.4065 28.542 35.1485 27.8586 34.571 27.4094Z" fill="#1C1C1C"/>
<path d="M24.7046 22.4057C24.7493 22.4154 24.7954 22.4193 24.8413 22.4193C24.9206 22.4193 25.0007 22.4057 25.078 22.377C25.3702 22.2691 25.9803 22.1241 26.9506 21.8998C26.9513 21.8998 26.9519 21.8998 26.9533 21.8991C33.8173 20.2782 33.8639 20.2489 34.2394 20.0117C34.8229 19.628 35.1336 18.9805 35.0956 18.2347C35.0962 18.1963 35.0943 18.1482 35.0916 18.1202C34.8976 16.3198 31.9234 12.0416 30.3363 11.2848C29.6308 10.9565 28.8819 10.9922 28.2917 11.379C27.9289 11.6085 27.9289 11.6085 24.1671 16.6248C24.1671 16.6248 22.6527 18.6332 22.5807 18.7268C21.9771 19.4446 21.9539 20.4576 22.5214 21.308C23.0321 22.0695 23.8757 22.4863 24.7046 22.4057Z" fill="#1C1C1C"/>
<path d="M19.8675 1.47766C19.6701 0.776139 19.1093 0.263735 18.327 0.0712691C16.4305 -0.383837 9.77322 1.43735 8.42681 2.78903C7.89267 3.33321 7.68058 4.04585 7.85868 4.69342C7.86938 4.73243 7.884 4.76946 7.90135 4.80588C8.08874 5.18563 14.1892 14.5483 16.0497 17.4C16.8299 18.6354 17.6862 19.2557 18.5951 19.2557C18.8112 19.2557 19.0293 19.2206 19.25 19.151C20.4177 18.8077 20.9652 17.7335 20.8765 15.9585C20.777 13.7226 19.9935 2.16424 19.8675 1.47766Z" fill="#1C1C1C"/>
</g>
<path d="M52.061 31.228C51.0857 31.228 50.2497 31.057 49.553 30.715C48.8563 30.373 48.3053 29.9043 47.9 29.309C47.5073 28.701 47.2793 28.017 47.216 27.257H49.724C49.8127 27.7637 50.0723 28.188 50.503 28.53C50.9337 28.872 51.4593 29.043 52.08 29.043C52.536 29.043 52.935 28.929 53.277 28.701C53.619 28.473 53.885 28.1627 54.075 27.77C54.265 27.3773 54.36 26.934 54.36 26.44C54.36 25.9333 54.265 25.4963 54.075 25.129C53.885 24.7617 53.619 24.4767 53.277 24.274C52.935 24.0713 52.5423 23.97 52.099 23.97C51.567 23.97 51.1047 24.103 50.712 24.369C50.3193 24.635 50.0407 24.958 49.876 25.338H47.406L48.527 17.7H55.956V19.942H50.427L49.857 22.887C50.1357 22.5957 50.5093 22.355 50.978 22.165C51.4467 21.975 51.9723 21.88 52.555 21.88C53.277 21.88 53.904 22.0067 54.436 22.26C54.968 22.5007 55.4113 22.8363 55.766 23.267C56.1333 23.6977 56.4057 24.1853 56.583 24.73C56.7603 25.262 56.849 25.8257 56.849 26.421C56.849 27.1177 56.7287 27.7637 56.488 28.359C56.26 28.9417 55.9307 29.4483 55.5 29.879C55.082 30.3097 54.5817 30.6453 53.999 30.886C53.4163 31.114 52.7703 31.228 52.061 31.228ZM60.1943 31.095C59.7257 31.095 59.3393 30.9557 59.0353 30.677C58.744 30.3857 58.5983 30.031 58.5983 29.613C58.5983 29.195 58.744 28.8467 59.0353 28.568C59.3393 28.2767 59.7257 28.131 60.1943 28.131C60.663 28.131 61.043 28.2767 61.3343 28.568C61.6257 28.8467 61.7713 29.195 61.7713 29.613C61.7713 30.031 61.6257 30.3857 61.3343 30.677C61.043 30.9557 60.663 31.095 60.1943 31.095ZM68.535 31.228C67.3064 31.228 66.2487 30.9367 65.362 30.354C64.488 29.7713 63.8167 28.967 63.348 27.941C62.8794 26.9023 62.645 25.7053 62.645 24.35C62.645 22.9947 62.8794 21.804 63.348 20.778C63.8167 19.7393 64.488 18.9287 65.362 18.346C66.2487 17.7633 67.3064 17.472 68.535 17.472C69.751 17.472 70.796 17.7633 71.67 18.346C72.544 18.9287 73.2154 19.7393 73.684 20.778C74.1527 21.804 74.387 22.9947 74.387 24.35C74.387 25.7053 74.1527 26.9023 73.684 27.941C73.2154 28.967 72.544 29.7713 71.67 30.354C70.796 30.9367 69.751 31.228 68.535 31.228ZM68.516 28.929C69.162 28.929 69.7257 28.7453 70.207 28.378C70.701 27.998 71.081 27.466 71.347 26.782C71.6257 26.098 71.765 25.2873 71.765 24.35C71.765 23.4 71.6257 22.5893 71.347 21.918C71.081 21.234 70.701 20.7083 70.207 20.341C69.7257 19.9737 69.162 19.79 68.516 19.79C67.8827 19.79 67.319 19.9737 66.825 20.341C66.331 20.7083 65.9447 21.234 65.666 21.918C65.4 22.5893 65.267 23.4 65.267 24.35C65.267 25.2873 65.4 26.098 65.666 26.782C65.9447 27.466 66.331 27.998 66.825 28.378C67.319 28.7453 67.8827 28.929 68.516 28.929Z" fill="#1C1C1C"/>
<rect x="96.4336" y="8.5" width="31" height="32" rx="6.81121" fill="#1C1C1C"/>
<path d="M112 28.9289L105.82 32.2026L107.2 25.6287L102 21.078L109.033 20.2889L112 14.2026L114.967 20.2889L122 21.078L116.8 25.6287L118.18 32.2026L112 28.9289Z" fill="white"/>
<rect x="134.244" y="8.5" width="31" height="32" rx="6.81121" fill="#1C1C1C"/>
<path d="M149.811 28.9289L143.63 32.2026L145.011 25.6287L139.811 21.078L146.844 20.2889L149.811 14.2026L152.777 20.2889L159.811 21.078L154.611 25.6287L155.991 32.2026L149.811 28.9289Z" fill="white"/>
<rect x="172.057" y="8.5" width="31" height="32" rx="6.81121" fill="#1C1C1C"/>
<path d="M187.623 28.9289L181.443 32.2026L182.823 25.6287L177.623 21.078L184.657 20.2889L187.623 14.2026L190.59 20.2889L197.623 21.078L192.423 25.6287L193.803 32.2026L187.623 28.9289Z" fill="white"/>
<rect x="209.867" y="8.5" width="31" height="32" rx="6.81121" fill="#1C1C1C"/>
<path d="M225.434 28.9289L219.253 32.2026L220.634 25.6287L215.434 21.078L222.467 20.2889L225.434 14.2026L228.4 20.2889L235.434 21.078L230.234 25.6287L231.614 32.2026L225.434 28.9289Z" fill="white"/>
<rect x="247.678" y="8.5" width="31" height="32" rx="6.81121" fill="#1C1C1C"/>
<path d="M263.244 28.9289L257.064 32.2026L258.444 25.6287L253.244 21.078L260.278 20.2889L263.244 14.2026L266.211 20.2889L273.244 21.078L268.044 25.6287L269.425 32.2026L263.244 28.9289Z" fill="white"/>
<defs>
<clipPath id="clip0_204_1563">
<rect width="40" height="39" fill="white"/>
</clipPath>
</defs>
</svg>
