<svg width="361" height="56" viewBox="0 0 361 56" fill="none" xmlns="http://www.w3.org/2000/svg">
<mask id="path-1-inside-1_204_1593" fill="white">
<path d="M0 3H274V56H0V3Z"/>
</mask>
<path d="M274 55H0V57H274V55Z" fill="white" mask="url(#path-1-inside-1_204_1593)"/>
<g clip-path="url(#clip0_204_1593)">
<path d="M20.7968 34.5H32.2279V15.1866L9.34728 8.64017V0.5H1.76953V34.5H13.2006V23.7957H20.7968V34.5Z" fill="#1C1C1C"/>
</g>
<path d="M53.372 29V26.587H46.836V24.554L53.03 15.7H55.937V24.364H57.666V26.587H55.937V29H53.372ZM49.572 24.364H53.543V18.531L49.572 24.364ZM60.7139 29.095C60.2452 29.095 59.8589 28.9557 59.5549 28.677C59.2635 28.3857 59.1179 28.031 59.1179 27.613C59.1179 27.195 59.2635 26.8467 59.5549 26.568C59.8589 26.2767 60.2452 26.131 60.7139 26.131C61.1825 26.131 61.5625 26.2767 61.8539 26.568C62.1452 26.8467 62.2909 27.195 62.2909 27.613C62.2909 28.031 62.1452 28.3857 61.8539 28.677C61.5625 28.9557 61.1825 29.095 60.7139 29.095ZM68.3091 29.228C67.3845 29.228 66.5991 29.0507 65.9531 28.696C65.3198 28.3287 64.8258 27.8537 64.4711 27.271C64.1165 26.6757 63.9075 26.0423 63.8441 25.371H66.2191C66.3331 25.9283 66.5675 26.359 66.9221 26.663C67.2895 26.967 67.7645 27.119 68.3471 27.119C68.8918 27.119 69.3605 26.9607 69.7531 26.644C70.1585 26.3147 70.4751 25.827 70.7031 25.181C70.9438 24.5223 71.0768 23.7053 71.1021 22.73C71.1021 22.692 71.1021 22.6603 71.1021 22.635C71.1021 22.6097 71.1021 22.578 71.1021 22.54C70.9121 22.882 70.6461 23.186 70.3041 23.452C69.9621 23.718 69.5758 23.927 69.1451 24.079C68.7271 24.231 68.2775 24.307 67.7961 24.307C67.0741 24.307 66.3901 24.1297 65.7441 23.775C65.0981 23.4203 64.5725 22.92 64.1671 22.274C63.7745 21.628 63.5781 20.8617 63.5781 19.975C63.5781 19.1643 63.7745 18.417 64.1671 17.733C64.5598 17.049 65.1045 16.5043 65.8011 16.099C66.5105 15.681 67.3211 15.472 68.2331 15.472C69.2465 15.472 70.0951 15.662 70.7791 16.042C71.4758 16.4093 72.0268 16.9033 72.4321 17.524C72.8501 18.132 73.1478 18.8223 73.3251 19.595C73.5151 20.355 73.6101 21.1277 73.6101 21.913C73.6101 23.395 73.4011 24.687 72.9831 25.789C72.5778 26.8783 71.9761 27.727 71.1781 28.335C70.3928 28.9303 69.4365 29.228 68.3091 29.228ZM68.4041 22.141C68.8601 22.141 69.2655 22.046 69.6201 21.856C69.9748 21.6533 70.2535 21.3873 70.4561 21.058C70.6715 20.716 70.7791 20.336 70.7791 19.918C70.7791 19.4747 70.6715 19.0883 70.4561 18.759C70.2535 18.417 69.9685 18.151 69.6011 17.961C69.2465 17.771 68.8411 17.676 68.3851 17.676C67.9418 17.676 67.5428 17.771 67.1881 17.961C66.8335 18.151 66.5548 18.4107 66.3521 18.74C66.1495 19.0693 66.0481 19.4557 66.0481 19.899C66.0481 20.3423 66.1495 20.735 66.3521 21.077C66.5548 21.4063 66.8335 21.666 67.1881 21.856C67.5428 22.046 67.9481 22.141 68.4041 22.141Z" fill="#1C1C1C"/>
<rect x="95.4336" y="6.5" width="31" height="32" rx="6.81121" fill="#1C1C1C"/>
<path d="M111 26.9289L104.82 30.2026L106.2 23.6287L101 19.078L108.033 18.2889L111 12.2026L113.967 18.2889L121 19.078L115.8 23.6287L117.18 30.2026L111 26.9289Z" fill="white"/>
<rect x="133.244" y="6.5" width="31" height="32" rx="6.81121" fill="#1C1C1C"/>
<path d="M148.811 26.9289L142.63 30.2026L144.011 23.6287L138.811 19.078L145.844 18.2889L148.811 12.2026L151.777 18.2889L158.811 19.078L153.611 23.6287L154.991 30.2026L148.811 26.9289Z" fill="white"/>
<rect x="171.057" y="6.5" width="31" height="32" rx="6.81121" fill="#1C1C1C"/>
<path d="M186.623 26.9289L180.443 30.2026L181.823 23.6287L176.623 19.078L183.657 18.2889L186.623 12.2026L189.59 18.2889L196.623 19.078L191.423 23.6287L192.803 30.2026L186.623 26.9289Z" fill="white"/>
<rect x="208.867" y="6.5" width="31" height="32" rx="6.81121" fill="#1C1C1C"/>
<path d="M224.434 26.9289L218.253 30.2026L219.634 23.6287L214.434 19.078L221.467 18.2889L224.434 12.2026L227.4 18.2889L234.434 19.078L229.234 23.6287L230.614 30.2026L224.434 26.9289Z" fill="white"/>
<rect x="246.678" y="6.5" width="31" height="32" rx="6.81121" fill="#1C1C1C"/>
<path d="M262.244 26.9289L256.064 30.2026L257.444 23.6287L252.244 19.078L259.278 18.2889L262.244 12.2026L265.211 18.2889L272.244 19.078L267.044 23.6287L268.425 30.2026L262.244 26.9289Z" fill="white"/>
<defs>
<clipPath id="clip0_204_1593">
<rect width="34" height="34" fill="white" transform="translate(0 0.5)"/>
</clipPath>
</defs>
</svg>
