<svg width="26" height="27" viewBox="0 0 26 27" fill="none" xmlns="http://www.w3.org/2000/svg">
<g clip-path="url(#clip0_204_1884)">
<path d="M5.76215 16.2122L4.85713 19.5908L1.54929 19.6607C0.560727 17.8272 0 15.7294 0 13.5001C0 11.3443 0.524266 9.31147 1.45356 7.52148H1.45427L4.39918 8.06139L5.68923 10.9886C5.41922 11.7758 5.27206 12.6208 5.27206 13.5001C5.27216 14.4543 5.44502 15.3687 5.76215 16.2122Z" fill="#2E2E2E"/>
<path d="M25.7722 11.0713C25.9215 11.8577 25.9994 12.6698 25.9994 13.4999C25.9994 14.4306 25.9015 15.3384 25.7151 16.2142C25.0822 19.1942 23.4287 21.7963 21.138 23.6377L21.1373 23.637L17.428 23.4477L16.903 20.1706C18.423 19.2792 19.6109 17.8842 20.2366 16.2142H13.2852V11.0713H20.338H25.7722Z" fill="#2C2C2C"/>
<path d="M21.1374 23.6374L21.1381 23.6381C18.9103 25.4288 16.0802 26.5002 12.9995 26.5002C8.04883 26.5002 3.74456 23.7331 1.54883 19.661L5.76169 16.2124C6.85953 19.1424 9.68596 21.2281 12.9995 21.2281C14.4238 21.2281 15.7581 20.8431 16.9031 20.171L21.1374 23.6374Z" fill="#292929"/>
<path d="M21.2974 3.49284L17.086 6.94069C15.901 6.19999 14.5003 5.77211 12.9996 5.77211C9.61098 5.77211 6.73168 7.95352 5.68884 10.9886L1.45384 7.52142H1.45312C3.61671 3.35 7.97527 0.5 12.9996 0.5C16.1538 0.5 19.046 1.62359 21.2974 3.49284Z" fill="#2B2B2B"/>
</g>
<defs>
<clipPath id="clip0_204_1884">
<rect width="26" height="26" fill="white" transform="translate(0 0.5)"/>
</clipPath>
</defs>
</svg>
