<svg width="30" height="30" viewBox="0 0 30 30" fill="none" xmlns="http://www.w3.org/2000/svg">
<path d="M0.483871 14.5161H14.5161V0.483871C14.5161 0.216653 14.7328 0 15 0C15.2672 0 15.4839 0.216653 15.4839 0.483871V14.5161H29.5161C29.7833 14.5161 30 14.7328 30 15C30 15.2672 29.7833 15.4839 29.5161 15.4839H15.4839V29.5161C15.4839 29.7833 15.2672 30 15 30C14.7328 30 14.5161 29.7833 14.5161 29.5161V15.4839H0.483871C0.216654 15.4839 0 15.2672 0 15C0 14.7328 0.216654 14.5161 0.483871 14.5161Z" fill="white"/>
</svg>
