<svg width="50" height="50" viewBox="0 0 50 50" fill="none" xmlns="http://www.w3.org/2000/svg">
<g clip-path="url(#clip0_212_2323)">
<path d="M44.4403 34.8564C44.2588 34.6747 44.0068 34.5703 43.75 34.5703C43.4932 34.5703 43.2412 34.6747 43.0596 34.8564C42.8779 35.0382 42.7734 35.289 42.7734 35.5469C42.7734 35.8037 42.8778 36.0557 43.0596 36.2372C43.2412 36.4188 43.4932 36.5234 43.75 36.5234C44.0068 36.5234 44.2588 36.4189 44.4403 36.2372C44.6221 36.0557 44.7266 35.8037 44.7266 35.5469C44.7266 35.29 44.6221 35.0381 44.4403 34.8564Z" fill="white"/>
<path d="M49.0234 48.047H44.7266V38.965C44.7266 38.4258 44.2893 37.9885 43.75 37.9885C43.2107 37.9885 42.7734 38.4258 42.7734 38.965V48.047H11.9141V38.8674C11.9141 38.3281 11.4768 37.8908 10.9375 37.8908C10.3982 37.8908 9.96094 38.3281 9.96094 38.8674V48.047H7.22656V22.3636L25 8.48796L42.7734 22.3636V31.6408C42.7734 32.1801 43.2107 32.6174 43.75 32.6174C44.2893 32.6174 44.7266 32.1801 44.7266 31.6408V23.8885L44.8973 24.0218C45.0747 24.1603 45.2867 24.2286 45.4979 24.2286C45.749 24.2286 45.9992 24.132 46.1887 23.9426L49.711 20.4201C49.9088 20.2222 50.0123 19.949 49.9952 19.6697C49.978 19.3904 49.842 19.1319 49.6214 18.9597L43.75 14.376V4.59001C43.75 4.05066 43.3127 3.61345 42.7734 3.61345H37.1135C36.5742 3.61345 36.1369 4.05066 36.1369 4.59001V8.4324L25.6009 0.207007C25.2479 -0.0686768 24.7521 -0.0686768 24.399 0.207007L0.378516 18.9597C0.15791 19.1319 0.021875 19.3904 0.0046875 19.6697C-0.0124023 19.949 0.0911133 20.2221 0.288867 20.4201L3.81123 23.9426C4.15986 24.2911 4.71396 24.3253 5.10273 24.0218L5.27344 23.8885V48.047H0.976562C0.437305 48.047 0 48.4844 0 49.0236C0 49.5629 0.437305 50.0002 0.976562 50.0002H49.0234C49.5627 50.0002 50 49.5629 50 49.0236C50 48.4844 49.5627 48.047 49.0234 48.047ZM38.09 5.56658H41.7969V12.8511L38.09 9.9572V5.56658ZM4.58164 21.9508L2.45078 19.8198L25 2.2156L47.5492 19.8198L45.4184 21.9508L25.6009 6.47927C25.4243 6.34138 25.2122 6.27244 25 6.27244C24.7878 6.27244 24.5756 6.34138 24.3991 6.47927L4.58164 21.9508Z" fill="white"/>
<path d="M34.375 21.2891H15.625C15.0857 21.2891 14.6484 21.7263 14.6484 22.2656V41.0156C14.6484 41.5549 15.0857 41.9922 15.625 41.9922H34.375C34.9143 41.9922 35.3516 41.5549 35.3516 41.0156V22.2656C35.3516 21.7263 34.9143 21.2891 34.375 21.2891ZM24.0234 40.0391H16.6016V32.6172H24.0234V40.0391ZM24.0234 30.6641H16.6016V23.2422H24.0234V30.6641ZM33.3984 40.0391H25.9766V32.6172H33.3984V40.0391ZM33.3984 30.6641H25.9766V23.2422H33.3984V30.6641Z" fill="white"/>
<path d="M10.9375 34.0337C10.3982 34.0337 9.96094 34.4709 9.96094 35.0103V35.026C9.96094 35.5652 10.3982 36.0025 10.9375 36.0025C11.4768 36.0025 11.9141 35.5652 11.9141 35.026V35.0103C11.9141 34.471 11.4768 34.0337 10.9375 34.0337Z" fill="white"/>
</g>
<defs>
<clipPath id="clip0_212_2323">
<rect width="50" height="50" fill="white"/>
</clipPath>
</defs>
</svg>
