<svg width="54" height="54" viewBox="0 0 54 54" fill="none" xmlns="http://www.w3.org/2000/svg">
<path d="M39.1908 53.1818H5.56357C3.27266 53.1818 1.47266 51.3818 1.47266 49.0908V4.90902C1.47266 2.61812 3.27266 0.818115 5.56357 0.818115H33.0545C33.5454 0.818115 33.8727 1.14539 33.8727 1.6363C33.8727 2.12721 33.5454 2.45448 33.0545 2.45448H5.56357C4.17266 2.45448 3.10902 3.51812 3.10902 4.90902V49.0908C3.10902 50.4818 4.17266 51.5454 5.56357 51.5454H39.1908C40.5817 51.5454 41.6454 50.4818 41.6454 49.0908V48.4363C41.6454 47.9454 41.9727 47.6181 42.4636 47.6181C42.9545 47.6181 43.2817 47.9454 43.2817 48.4363V49.0908C43.2817 51.3818 41.4818 53.1818 39.1908 53.1818Z" fill="white"/>
<path d="M42.4627 30.7635C41.9718 30.7635 41.6445 30.4362 41.6445 29.9453V10.8817C41.6445 10.3907 41.9718 10.0635 42.4627 10.0635C42.9536 10.0635 43.2809 10.3907 43.2809 10.8817V29.9453C43.2809 30.4362 42.9536 30.7635 42.4627 30.7635Z" fill="white"/>
<path d="M42.4638 11.6999H36.1638C34.0365 11.6999 32.3184 9.98175 32.3184 7.85448V1.6363C32.3184 1.14539 32.6456 0.818115 33.1365 0.818115C33.382 0.818115 33.6274 0.899933 33.7911 1.06357L43.0365 10.309C43.282 10.5545 43.3638 10.8818 43.2002 11.209C43.1184 11.5363 42.7911 11.6999 42.4638 11.6999ZM33.9547 3.51812V7.85448C33.9547 9.08175 34.9365 10.0636 36.1638 10.0636H40.5002L33.9547 3.51812Z" fill="white"/>
<path d="M8.50966 11.7817C8.2642 11.7817 8.10057 11.6999 7.93693 11.5363L6.4642 10.0635C6.13693 9.73626 6.13693 9.24535 6.4642 8.91807C6.79148 8.5908 7.28239 8.5908 7.60966 8.91807L8.50966 9.81808L11.3733 6.95444C11.7006 6.62717 12.1915 6.62717 12.5188 6.95444C12.846 7.28171 12.846 7.77262 12.5188 8.09989L9.08239 11.5363C8.91875 11.6999 8.75511 11.7817 8.50966 11.7817Z" fill="white"/>
<path d="M8.50966 20.6181C8.2642 20.6181 8.10057 20.5363 7.93693 20.3727L6.4642 18.8999C6.13693 18.5727 6.13693 18.0817 6.4642 17.7545C6.79148 17.4272 7.28239 17.4272 7.60966 17.7545L8.50966 18.6545L11.3733 15.8727C11.7006 15.5454 12.1915 15.5454 12.5188 15.8727C12.846 16.1999 12.846 16.6908 12.5188 17.0181L9.08239 20.3727C8.91875 20.5363 8.75511 20.6181 8.50966 20.6181Z" fill="white"/>
<path d="M8.50966 29.5363C8.2642 29.5363 8.10057 29.4545 7.93693 29.2909L6.4642 27.7364C6.13693 27.4091 6.13693 26.9182 6.4642 26.5909C6.79148 26.2636 7.28239 26.2636 7.60966 26.5909L8.50966 27.5727L11.3733 24.7091C11.7006 24.3818 12.1915 24.3818 12.5188 24.7091C12.846 25.0364 12.846 25.5273 12.5188 25.8545L9.08239 29.2909C8.91875 29.4545 8.75511 29.5363 8.50966 29.5363Z" fill="white"/>
<path d="M8.50966 38.3727C8.2642 38.3727 8.10057 38.2909 7.93693 38.1273L6.4642 36.6546C6.13693 36.3273 6.13693 35.8364 6.4642 35.5091C6.79148 35.1818 7.28239 35.1818 7.60966 35.5091L8.50966 36.4091L11.3733 33.6273C11.7006 33.3 12.1915 33.3 12.5188 33.6273C12.846 33.9546 12.846 34.4455 12.5188 34.7727L9.08239 38.1273C8.91875 38.2909 8.75511 38.3727 8.50966 38.3727Z" fill="white"/>
<path d="M8.50966 47.2907C8.2642 47.2907 8.10057 47.2089 7.93693 47.0453L6.4642 45.4907C6.13693 45.1635 6.13693 44.6726 6.4642 44.3453C6.79148 44.018 7.28239 44.018 7.60966 44.3453L8.50966 45.3271L11.3733 42.4635C11.7006 42.1362 12.1915 42.1362 12.5188 42.4635C12.846 42.7907 12.846 43.2817 12.5188 43.6089L9.08239 47.0453C8.91875 47.2089 8.75511 47.2907 8.50966 47.2907Z" fill="white"/>
<path d="M27.6556 8.26356H15.4647C14.9738 8.26356 14.6465 7.93629 14.6465 7.44538C14.6465 6.95447 14.9738 6.6272 15.4647 6.6272H27.6556C28.1465 6.6272 28.4738 6.95447 28.4738 7.44538C28.4738 7.93629 28.1465 8.26356 27.6556 8.26356Z" fill="white"/>
<path d="M29.1283 11.9454H15.4647C14.9738 11.9454 14.6465 11.6182 14.6465 11.1273C14.6465 10.6364 14.9738 10.3091 15.4647 10.3091H29.1283C29.6192 10.3091 29.9465 10.6364 29.9465 11.1273C29.9465 11.6182 29.6192 11.9454 29.1283 11.9454Z" fill="white"/>
<path d="M27.6556 17.1H15.4647C14.9738 17.1 14.6465 16.7727 14.6465 16.2818C14.6465 15.7909 14.9738 15.4636 15.4647 15.4636H27.6556C28.1465 15.4636 28.4738 15.7909 28.4738 16.2818C28.4738 16.7727 28.1465 17.1 27.6556 17.1Z" fill="white"/>
<path d="M37.7192 20.7819H15.4647C14.9738 20.7819 14.6465 20.4546 14.6465 19.9637C14.6465 19.4728 14.9738 19.1455 15.4647 19.1455H37.7192C38.2101 19.1455 38.5374 19.4728 38.5374 19.9637C38.5374 20.4546 38.2101 20.7819 37.7192 20.7819Z" fill="white"/>
<path d="M27.6556 26.0182H15.4647C14.9738 26.0182 14.6465 25.6909 14.6465 25.2C14.6465 24.7091 14.9738 24.3818 15.4647 24.3818H27.6556C28.1465 24.3818 28.4738 24.7091 28.4738 25.2C28.4738 25.6909 28.1465 26.0182 27.6556 26.0182Z" fill="white"/>
<path d="M34.7738 29.6183H15.4647C14.9738 29.6183 14.6465 29.291 14.6465 28.8001C14.6465 28.3092 14.9738 27.9819 15.4647 27.9819H34.7738C35.2647 27.9819 35.5919 28.3092 35.5919 28.8001C35.5919 29.291 35.2647 29.6183 34.7738 29.6183Z" fill="white"/>
<path d="M27.6556 34.8544H15.4647C14.9738 34.8544 14.6465 34.5271 14.6465 34.0362C14.6465 33.5453 14.9738 33.218 15.4647 33.218H27.6556C28.1465 33.218 28.4738 33.5453 28.4738 34.0362C28.4738 34.5271 28.1465 34.8544 27.6556 34.8544Z" fill="white"/>
<path d="M29.1283 38.5363H15.4647C14.9738 38.5363 14.6465 38.209 14.6465 37.7181C14.6465 37.2272 14.9738 36.8999 15.4647 36.8999H29.1283C29.6192 36.8999 29.9465 37.2272 29.9465 37.7181C29.9465 38.209 29.6192 38.5363 29.1283 38.5363Z" fill="white"/>
<path d="M27.6556 43.6908H15.4647C14.9738 43.6908 14.6465 43.3635 14.6465 42.8726C14.6465 42.3817 14.9738 42.0544 15.4647 42.0544H27.6556C28.1465 42.0544 28.4738 42.3817 28.4738 42.8726C28.4738 43.3635 28.1465 43.6908 27.6556 43.6908Z" fill="white"/>
<path d="M31.5828 47.3727H15.4647C14.9738 47.3727 14.6465 47.0454 14.6465 46.5545C14.6465 46.0636 14.9738 45.7363 15.4647 45.7363H31.5828C32.0738 45.7363 32.401 46.0636 32.401 46.5545C32.401 47.0454 32.0738 47.3727 31.5828 47.3727Z" fill="white"/>
<path d="M42.464 49.2545C36.9004 49.2545 32.4004 44.7545 32.4004 39.1908C32.4004 33.6272 36.9004 29.1272 42.464 29.1272C48.0277 29.1272 52.5277 33.6272 52.5277 39.1908C52.5277 44.7545 48.0277 49.2545 42.464 49.2545ZM42.464 30.7636C37.8004 30.7636 34.0368 34.5272 34.0368 39.1908C34.0368 43.8545 37.8004 47.6181 42.464 47.6181C47.1277 47.6181 50.8913 43.8545 50.8913 39.1908C50.8913 34.5272 47.1277 30.7636 42.464 30.7636Z" fill="white"/>
<path d="M40.5822 42.9545C40.3367 42.9545 40.1731 42.8727 40.0094 42.7091L37.8822 40.5818C37.5549 40.2545 37.5549 39.7636 37.8822 39.4364C38.2094 39.1091 38.7004 39.1091 39.0276 39.4364L40.5822 40.9909L45.9822 35.5909C46.3094 35.2636 46.8004 35.2636 47.1276 35.5909C47.4549 35.9182 47.4549 36.4091 47.1276 36.7364L41.1549 42.7091C40.9913 42.8727 40.8276 42.9545 40.5822 42.9545Z" fill="white"/>
</svg>
