<svg width="60" height="60" viewBox="0 0 60 60" fill="none" xmlns="http://www.w3.org/2000/svg">
<path fill-rule="evenodd" clip-rule="evenodd" d="M50.2834 24.1108C49.6052 24.1108 48.9132 24.0278 48.2488 23.8894V38.8375C49.5637 38.4914 51.0031 38.4914 52.318 38.8375V23.8894C51.6536 24.0278 50.9754 24.1108 50.2834 24.1108ZM8.87163 52.969V48.1247C8.87163 47.5572 9.34222 47.3219 9.82665 47.3219V36.3876C5.14845 37.2042 1.61904 40.5676 1.61904 44.5814V52.969H5.03772V45.8132C5.03772 44.7752 6.62942 44.7752 6.62942 45.8132V52.969H8.87163ZM11.4322 47.3219H12.1934V36.1939L11.4322 36.2077V47.3219ZM13.7851 47.3219H27.5983V36.1939H26.0343L21.4114 45.6056C21.1208 46.1869 20.2626 46.1869 19.972 45.6056L15.3491 36.1939H13.7851V47.3219ZM29.19 47.3219H29.9512V36.2077L29.19 36.1939V47.3219ZM31.5429 47.3219C32.0412 47.3219 32.5118 47.5572 32.5118 48.1247V52.969H34.7401V45.8132C34.7401 44.7752 36.3457 44.7752 36.3457 45.8132V52.969H39.7505V44.5814C39.7505 40.5676 36.235 37.2042 31.5429 36.3876V47.3219ZM30.9201 52.969V48.9274H10.4633V52.969H30.9201ZM30.6848 20.1523H29.9927V25.0935C29.9927 28.3738 28.2765 31.2665 25.7021 32.9274L26.145 34.5883C27.6952 34.5883 29.2592 34.5191 30.8094 34.6714C36.7471 35.2804 41.3422 39.488 41.3422 44.5814V53.7717C41.3422 54.2146 40.9962 54.5745 40.5533 54.5745H0.830112C0.387205 54.5745 0.0273438 54.2146 0.0273438 53.7717V44.5814C0.0273438 38.6991 5.89586 34.6299 12.055 34.5883H15.2246L15.6813 32.9274C13.0931 31.2665 11.3907 28.3738 11.3907 25.0935V20.1523H10.6986C8.17959 20.1523 7.55676 16.6921 9.79897 15.7371C10.2004 9.93781 15.0446 5.43954 20.6917 5.43954C26.3249 5.43954 31.1692 9.93781 31.5844 15.7371C33.8128 16.6921 33.19 20.1523 30.6848 20.1523ZM10.6294 17.1627C9.77129 17.2458 9.82665 18.5606 10.6986 18.5606H30.6848C31.626 18.5606 31.5291 17.1489 30.6848 17.1489H10.6848L10.6294 17.1627ZM23.363 15.5572V7.43262C21.6606 6.90667 19.709 6.90667 18.0204 7.43262V15.5572H23.363ZM24.9547 8.09698V15.5572H29.9651C29.6329 12.3184 27.6813 9.55026 24.9547 8.09698ZM16.4149 15.5572V8.09698C13.7021 9.55026 11.7505 12.3184 11.4183 15.5572H16.4149ZM20.6917 34.3946C19.4322 34.3946 18.228 34.1454 17.1208 33.6887L16.6917 35.3081L20.6917 43.4465L24.6917 35.3081L24.2488 33.6887C23.1554 34.1454 21.9512 34.3946 20.6917 34.3946ZM12.9824 20.1523V25.0935C12.9824 29.398 16.5118 32.8029 20.6917 32.8029C24.8578 32.8029 28.3872 29.398 28.3872 25.0935V20.1523H12.9824ZM50.2834 51.5433C49.8267 51.5433 46.8786 49.7025 46.2834 49.3565C46.0343 49.2042 45.882 48.9413 45.882 48.6645V44.4845C45.882 44.2077 46.0343 43.9447 46.2834 43.7925L49.882 41.7164C50.1312 41.5779 50.4356 41.5779 50.6848 41.7164L54.2972 43.7925C54.5464 43.9447 54.6986 44.2077 54.6986 44.4845V48.6645C54.6986 48.9413 54.5464 49.2042 54.2972 49.3565C53.6882 49.7025 50.7401 51.5433 50.2834 51.5433ZM47.4737 48.1939L50.2834 49.8271L53.0931 48.1939V44.9551L50.2834 43.3357L47.4737 44.9551V48.1939ZM50.2834 35.5295C49.8405 35.5295 49.4945 35.1696 49.4945 34.7406V28.0693C49.4945 27.0451 51.0862 27.0451 51.0862 28.0693V34.7406C51.0862 35.1696 50.7263 35.5295 50.2834 35.5295ZM50.2834 54.5745C45.882 54.5745 42.2972 50.9759 42.2972 46.5745C42.2972 43.4741 44.0689 40.789 46.6571 39.4603V23.3911C38.754 20.18 38.5325 8.87206 46.5187 5.4949C47.0446 5.27345 47.6398 5.67483 47.6398 6.22847V13.6195H52.9408V6.22847C52.9408 5.66099 53.536 5.27345 54.0481 5.4949C62.0481 8.85822 61.8128 20.1939 53.9235 23.3911V39.4603C56.5118 40.789 58.2834 43.4741 58.2834 46.5745C58.2834 50.9759 54.6986 54.5745 50.2834 54.5745ZM48.844 40.3461C46.0066 40.9966 43.8889 43.5433 43.8889 46.5745C43.8889 50.1039 46.754 52.969 50.2834 52.969C53.8128 52.969 56.6779 50.1039 56.6779 46.5745C56.6779 42.3946 52.7194 39.4465 48.844 40.3461ZM48.9824 22.3946C53.7298 23.1696 58.3803 19.488 58.3803 14.4222C58.3803 11.5849 56.8993 8.99663 54.5325 7.5295V14.4222C54.5325 14.8651 54.1727 15.225 53.7436 15.225H46.837C46.3941 15.225 46.0343 14.8651 46.0343 14.4222V7.5295C39.709 11.4326 41.6329 21.1766 48.9824 22.3946Z" fill="white"/>
</svg>
