<svg width="60" height="60" viewBox="0 0 60 60" fill="none" xmlns="http://www.w3.org/2000/svg">
<path d="M38.9529 45.7618C38.7303 45.3751 38.8592 44.8712 39.2459 44.6485C39.6326 44.4141 40.1365 44.5548 40.3709 44.9415L42.6678 48.9259L50.7889 40.8048C51.1053 40.4884 51.6209 40.4884 51.949 40.8048C52.2654 41.1329 52.2654 41.6485 51.949 41.9649L43.0779 50.836C42.7029 51.211 42.0584 51.1407 41.7889 50.672L38.9529 45.7618ZM45.5154 33.5391C47.9412 33.5391 50.2029 34.2305 52.1131 35.4376C54.0467 28.2305 52.617 20.4493 48.1521 14.4024C47.8826 14.0391 47.9646 13.5235 48.3162 13.254C48.6795 12.9845 49.1951 13.0665 49.4646 13.418C54.3631 20.0391 55.8396 28.6055 53.5193 36.4571C59.0623 41.1446 59.4256 49.5704 54.281 54.7149C49.1951 59.8009 40.8748 59.5079 36.1521 54.0938C32.8006 55.1368 29.2732 55.4884 25.7928 55.1602C22.6287 54.8555 19.5115 53.9766 16.5935 52.5235L18.0701 55.2071C18.281 55.6055 18.1404 56.0977 17.742 56.3204C17.3435 56.5313 16.8514 56.3907 16.6287 55.9923L13.7576 50.7657C13.4646 50.2266 13.8396 49.5118 14.5428 49.5587L20.449 49.6759C20.906 49.6876 21.2576 50.0626 21.2576 50.5079C21.2459 50.9649 20.8709 51.3165 20.4256 51.3048L17.7303 51.2462C20.3553 52.5001 23.1326 53.2501 25.9568 53.5313C29.0271 53.8243 32.1326 53.543 35.1092 52.6993C33.2576 49.8516 32.6365 46.336 33.4685 42.961C32.9178 43.1602 32.3553 43.336 31.7928 43.4649V46.2305C31.7928 46.6876 31.4295 47.0509 30.9725 47.0509H25.7107C25.2537 47.0509 24.8904 46.6876 24.8904 46.2305V43.4766C23.367 43.1134 21.9021 42.504 20.5662 41.6837L18.6092 43.6407C18.2928 43.9688 17.7654 43.9688 17.449 43.6407L13.7107 39.9141C13.3943 39.5977 13.3943 39.0704 13.7107 38.754L15.6678 36.797C14.8475 35.461 14.2381 34.0079 13.8748 32.4727H11.1209C10.6639 32.4727 10.3006 32.1095 10.3006 31.6524V26.3907C10.3006 25.9337 10.6639 25.5704 11.1209 25.5704H13.8865C14.2498 24.0352 14.8592 22.5821 15.6795 21.2462L13.7107 19.2891C13.3943 18.9727 13.3943 18.4454 13.7107 18.129L17.4373 14.4024C17.7537 14.086 18.281 14.086 18.5975 14.4024L20.5545 16.3595C21.8904 15.5391 23.3435 14.9298 24.8787 14.5665V11.8009C24.8787 11.3438 25.242 10.9805 25.699 10.9805H30.9607C31.4178 10.9805 31.781 11.3438 31.781 11.8009V14.5665C33.3162 14.9298 34.7693 15.5391 36.1053 16.3595L38.0623 14.4024C38.3787 14.086 38.906 14.086 39.2225 14.4024L42.949 18.129C43.2654 18.4454 43.2654 18.961 42.949 19.2891L40.992 21.2462C41.8123 22.5704 42.4217 24.0352 42.785 25.5704H45.5506C46.0076 25.5704 46.3709 25.9337 46.3709 26.3907V31.6524C46.3709 32.1212 45.9959 32.4845 45.4803 32.461H42.785L42.3514 33.9259C43.3592 33.6798 44.4256 33.5391 45.5154 33.5391ZM34.1834 40.8868C34.8045 39.4923 35.6717 38.2384 36.7381 37.172C37.7576 36.1524 38.9529 35.3087 40.2771 34.6993C40.4881 34.2423 40.6873 33.7735 40.8514 33.2813C41.0506 32.7071 41.2029 32.1212 41.3201 31.5118C41.3904 31.1368 41.7303 30.8438 42.1287 30.8438H44.742V27.211H42.1287C41.742 27.211 41.4021 26.9415 41.3201 26.5431C41.156 25.6524 40.8865 24.7852 40.5467 23.9649C40.2068 23.1446 39.785 22.3712 39.2928 21.6446C39.0467 21.3165 39.0701 20.8595 39.3631 20.5665L41.2029 18.7266L38.6365 16.1602L36.7967 18.0001C36.5271 18.2696 36.0935 18.3165 35.7537 18.0938C35.0154 17.5899 34.2185 17.1563 33.3865 16.8165C32.5779 16.4766 31.7342 16.2305 30.867 16.0548C30.4568 16.0079 30.1404 15.6563 30.1404 15.2462V12.6329H26.5076V15.1993C26.531 15.6095 26.2498 15.9727 25.8396 16.0548C24.9373 16.2188 24.0818 16.4884 23.2615 16.8282C22.4412 17.1681 21.6678 17.5899 20.9295 18.0821C20.6131 18.3282 20.1443 18.3048 19.8514 18.0118L18.0115 16.172L15.4451 18.7384L17.285 20.5782C17.5545 20.8477 17.6014 21.2813 17.3787 21.6212C16.8748 22.3595 16.4412 23.1563 16.1014 23.9884C15.7732 24.797 15.5154 25.6407 15.3396 26.5079C15.2928 26.918 14.9529 27.2345 14.531 27.2345H11.9178V30.8555H14.531C14.9178 30.8555 15.2576 31.1368 15.3396 31.5235C15.5037 32.4259 15.7732 33.2813 16.1131 34.1016C16.4529 34.922 16.8748 35.6954 17.367 36.422C17.6131 36.7384 17.5896 37.2071 17.2967 37.5001L15.4568 39.3399L18.0232 41.9063L19.8631 40.0665C20.1326 39.797 20.5662 39.7501 20.906 39.9727C21.6443 40.4766 22.4412 40.9102 23.2732 41.2501C24.0818 41.5782 24.9256 41.836 25.8045 42.0118C26.2146 42.0587 26.531 42.3985 26.531 42.8204V45.4337H30.1521V42.8204C30.1521 42.4337 30.4334 42.0938 30.8201 42.0118C31.992 41.7891 33.117 41.4024 34.1834 40.8868ZM53.1326 38.3321C48.9256 34.1251 42.1053 34.1251 37.8982 38.3321C33.6912 42.5391 33.6912 49.3595 37.8982 53.5665C42.1053 57.7735 48.9256 57.7735 53.1326 53.5665C57.3279 49.3595 57.3279 42.5391 53.1326 38.3321ZM38.6014 2.85946C38.3904 2.46102 38.531 1.96883 38.9295 1.74617C39.3279 1.53524 39.8201 1.67586 40.0428 2.06258L42.9139 7.28914C43.2068 7.82821 42.8318 8.54305 42.1287 8.49617L36.2107 8.37899C35.7654 8.36727 35.4021 7.99227 35.4139 7.54696C35.4256 7.10164 35.8006 6.73836 36.2459 6.75008L38.9412 6.80867C34.3475 4.61727 29.2029 3.92586 24.2459 4.75789C12.8435 6.65633 4.26542 16.3243 3.73808 27.9141C3.49198 33.4571 5.10917 39.0352 8.51933 43.6641C8.78886 44.0274 8.70683 44.543 8.35527 44.8126C7.99198 45.0821 7.47636 45.0001 7.20683 44.6485C3.5623 39.7266 1.83964 33.7618 2.09745 27.8555C2.65995 15.4688 11.8123 5.15633 23.9764 3.12899C29.4139 2.22664 35.074 3.04696 40.0779 5.54305L38.6014 2.85946ZM28.3357 20.8946C32.824 20.8946 36.4568 24.5274 36.4568 29.0157C36.4568 33.504 32.8123 37.1368 28.3357 37.1368C23.8475 37.1368 20.2029 33.504 20.2029 29.0157C20.2029 24.5391 23.8475 20.8946 28.3357 20.8946ZM32.9178 24.4454C30.3865 21.9141 26.2732 21.9141 23.742 24.4454C21.2107 26.9766 21.2107 31.0782 23.742 33.6212C26.2732 36.1524 30.3865 36.1524 32.9178 33.6212C35.449 31.0782 35.449 26.9766 32.9178 24.4454Z" fill="white"/>
</svg>
