<svg width="193" height="41" viewBox="0 0 193 41" fill="none" xmlns="http://www.w3.org/2000/svg">
<rect x="5.43359" y="4.5" width="31" height="32" rx="6.81121" fill="white"/>
<path d="M21 24.9291L14.8197 28.2029L16.2 21.6289L11 17.0783L18.0335 16.2891L21 10.2029L23.9666 16.2891L31 17.0783L25.8001 21.6289L27.1804 28.2029L21 24.9291Z" fill="#232323"/>
<rect x="43.2441" y="4.5" width="31" height="32" rx="6.81121" fill="white"/>
<path d="M58.8106 24.9291L52.6302 28.2029L54.0106 21.6289L48.8105 17.0783L55.844 16.2891L58.8106 10.2029L61.7771 16.2891L68.8105 17.0783L63.6106 21.6289L64.9909 28.2029L58.8106 24.9291Z" fill="#232323"/>
<rect x="81.0566" y="4.5" width="31" height="32" rx="6.81121" fill="white"/>
<path d="M96.6231 24.9291L90.4427 28.2029L91.8231 21.6289L86.623 17.0783L93.6565 16.2891L96.6231 10.2029L99.5896 16.2891L106.623 17.0783L101.423 21.6289L102.803 28.2029L96.6231 24.9291Z" fill="#232323"/>
<rect x="118.867" y="4.5" width="31" height="32" rx="6.81121" fill="white"/>
<path d="M134.434 24.9291L128.253 28.2029L129.634 21.6289L124.434 17.0783L131.467 16.2891L134.434 10.2029L137.4 16.2891L144.434 17.0783L139.234 21.6289L140.614 28.2029L134.434 24.9291Z" fill="#232323"/>
<rect x="156.678" y="4.5" width="31" height="32" rx="6.81121" fill="white"/>
<path d="M172.244 24.9291L166.064 28.2029L167.444 21.6289L162.244 17.0783L169.278 16.2891L172.244 10.2029L175.211 16.2891L182.244 17.0783L177.044 21.6289L178.425 28.2029L172.244 24.9291Z" fill="#232323"/>
</svg>
