<svg width="137" height="23" viewBox="0 0 137 23" fill="none" xmlns="http://www.w3.org/2000/svg">
<rect y="0.5" width="24.8761" height="22.4533" rx="2" fill="#282828"/>
<path d="M18.9579 9.52162C18.8609 9.25513 18.611 9.06083 18.3102 9.01835L14.8085 8.52441L13.2357 5.43146C13.1015 5.16782 12.8149 5 12.5 5C12.1849 5 11.8985 5.16782 11.7643 5.43146L10.1913 8.52461L6.68963 9.01854C6.38877 9.06102 6.13887 9.25513 6.04209 9.52181C5.94531 9.7885 6.01836 10.0822 6.23111 10.2838L8.78827 12.7043L8.18262 16.1287C8.13268 16.4122 8.26289 16.6971 8.51691 16.8628C8.77073 17.0286 9.10585 17.0453 9.37886 16.9063L12.5002 15.3128L15.6215 16.9063C15.7447 16.9691 15.8803 17 16.0153 17C16.1795 17 16.3438 16.9539 16.4835 16.8628C16.7375 16.6973 16.8675 16.4123 16.8176 16.1287L16.2119 12.7043L18.7693 10.2838C18.9816 10.0822 19.0547 9.78849 18.9579 9.52162Z" fill="white"/>
<rect x="28" y="0.5" width="24.8761" height="22.4533" rx="2" fill="#282828"/>
<path d="M46.9579 9.52162C46.8609 9.25513 46.611 9.06083 46.3102 9.01835L42.8085 8.52441L41.2357 5.43146C41.1015 5.16782 40.8149 5 40.5 5C40.1849 5 39.8985 5.16782 39.7643 5.43146L38.1913 8.52461L34.6896 9.01854C34.3888 9.06102 34.1389 9.25513 34.0421 9.52181C33.9453 9.7885 34.0184 10.0822 34.2311 10.2838L36.7883 12.7043L36.1826 16.1287C36.1327 16.4122 36.2629 16.6971 36.5169 16.8628C36.7707 17.0286 37.1059 17.0453 37.3789 16.9063L40.5002 15.3128L43.6215 16.9063C43.7447 16.9691 43.8803 17 44.0153 17C44.1795 17 44.3438 16.9539 44.4835 16.8628C44.7375 16.6973 44.8675 16.4123 44.8176 16.1287L44.2119 12.7043L46.7693 10.2838C46.9816 10.0822 47.0547 9.78849 46.9579 9.52162Z" fill="white"/>
<rect x="56" y="0.5" width="24.8761" height="22.4533" rx="2" fill="#282828"/>
<path d="M74.9579 9.52162C74.8609 9.25513 74.611 9.06083 74.3102 9.01835L70.8085 8.52441L69.2357 5.43146C69.1015 5.16782 68.8149 5 68.5 5C68.1849 5 67.8985 5.16782 67.7643 5.43146L66.1913 8.52461L62.6896 9.01854C62.3888 9.06102 62.1389 9.25513 62.0421 9.52181C61.9453 9.7885 62.0184 10.0822 62.2311 10.2838L64.7883 12.7043L64.1826 16.1287C64.1327 16.4122 64.2629 16.6971 64.5169 16.8628C64.7707 17.0286 65.1059 17.0453 65.3789 16.9063L68.5002 15.3128L71.6215 16.9063C71.7447 16.9691 71.8803 17 72.0153 17C72.1795 17 72.3438 16.9539 72.4835 16.8628C72.7375 16.6973 72.8675 16.4123 72.8176 16.1287L72.2119 12.7043L74.7693 10.2838C74.9816 10.0822 75.0547 9.78849 74.9579 9.52162Z" fill="white"/>
<rect x="84" y="0.5" width="24.8761" height="22.4533" rx="2" fill="#282828"/>
<path d="M102.958 9.52162C102.861 9.25513 102.611 9.06083 102.31 9.01835L98.8085 8.52441L97.2357 5.43146C97.1015 5.16782 96.8149 5 96.5 5C96.1849 5 95.8985 5.16782 95.7643 5.43146L94.1913 8.52461L90.6896 9.01854C90.3888 9.06102 90.1389 9.25513 90.0421 9.52181C89.9453 9.7885 90.0184 10.0822 90.2311 10.2838L92.7883 12.7043L92.1826 16.1287C92.1327 16.4122 92.2629 16.6971 92.5169 16.8628C92.7707 17.0286 93.1059 17.0453 93.3789 16.9063L96.5002 15.3128L99.6215 16.9063C99.7447 16.9691 99.8803 17 100.015 17C100.18 17 100.344 16.9539 100.483 16.8628C100.738 16.6973 100.868 16.4123 100.818 16.1287L100.212 12.7043L102.769 10.2838C102.982 10.0822 103.055 9.78849 102.958 9.52162Z" fill="white"/>
<rect x="112" y="0.5" width="24.8761" height="22.4533" rx="2" fill="#282828"/>
<path d="M130.958 9.52162C130.861 9.25513 130.611 9.06083 130.31 9.01835L126.808 8.52441L125.236 5.43146C125.102 5.16782 124.815 5 124.5 5C124.185 5 123.898 5.16782 123.764 5.43146L122.191 8.52461L118.69 9.01854C118.389 9.06102 118.139 9.25513 118.042 9.52181C117.945 9.7885 118.018 10.0822 118.231 10.2838L120.788 12.7043L120.183 16.1287C120.133 16.4122 120.263 16.6971 120.517 16.8628C120.771 17.0286 121.106 17.0453 121.379 16.9063L124.5 15.3128L127.622 16.9063C127.745 16.9691 127.88 17 128.015 17C128.18 17 128.344 16.9539 128.483 16.8628C128.738 16.6973 128.868 16.4123 128.818 16.1287L128.212 12.7043L130.769 10.2838C130.982 10.0822 131.055 9.78849 130.958 9.52162Z" fill="white"/>
</svg>
