<svg width="56" height="52" viewBox="0 0 56 52" fill="none" xmlns="http://www.w3.org/2000/svg">
<path d="M24.5852 22.9983L24.2148 26.6967L28 29.2985L31.7851 26.6967L31.4148 22.9984" stroke="#212121" stroke-width="1.3" stroke-miterlimit="22.9256"/>
<path d="M35.2528 14.1252V16.6054C35.2528 20.5947 31.9887 23.8588 27.9995 23.8588C24.0102 23.8588 20.7461 20.5947 20.7461 16.6054V14.1252" stroke="#212121" stroke-width="1.3" stroke-miterlimit="22.9256"/>
<path d="M20.8906 28.4094L24.2148 32.0404L27.9999 29.2987" stroke="#212121" stroke-width="1.3" stroke-miterlimit="22.9256"/>
<path d="M37.1499 10.7776H18.8496V13.9602H37.1499V10.7776Z" stroke="#212121" stroke-width="1.3" stroke-miterlimit="22.9256"/>
<path d="M20.4414 10.7773V9.98163C20.4414 8.47761 20.881 7.0766 21.6383 5.89923M22.6704 4.62224C23.6783 3.61991 24.9674 2.9001 26.4089 2.59106M29.5917 2.59117C33.002 3.32202 35.5592 6.35297 35.5592 9.98163V10.7773" stroke="#212121" stroke-width="1.3" stroke-miterlimit="22.9256"/>
<path d="M26.4082 10.7775V2.59133C26.4082 1.7161 27.1243 1 27.9995 1C28.8748 1 29.5909 1.7161 29.5909 2.59133V10.7775" stroke="#212121" stroke-width="1.3" stroke-miterlimit="22.9256"/>
<path d="M24.2156 26.6969L18.2353 29.7778C16.1094 30.873 13.8867 31.7349 13.8867 34.1264V41.2456L28.0007 50.7934L34.3985 46.4653M35.7168 45.5736L42.1147 41.2455L42.1148 34.1263C42.1148 31.7354 39.892 30.8729 37.7662 29.7777L31.7859 26.6968" stroke="#212121" stroke-width="1.3" stroke-miterlimit="22.9256"/>
<path d="M43.4984 25.3086L43.2422 27.8679M48.4808 27.8679L48.2246 25.3086" stroke="#212121" stroke-width="1.3" stroke-miterlimit="22.9256"/>
<path d="M43.2433 27.8679L41.1778 28.9803C40.349 29.4267 39.4957 29.8184 38.8066 30.3041M42.1145 41.2455H54.3635V32.7965C54.3635 30.6978 52.3947 29.9753 50.5474 28.9804L48.4819 27.868" stroke="#212121" stroke-width="1.3" stroke-miterlimit="22.9256"/>
<path d="M48.4808 27.8679C48.4808 29.0226 47.3081 29.9586 45.8615 29.9586C44.4149 29.9586 43.2422 29.0226 43.2422 27.8679" stroke="#212121" stroke-width="1.3" stroke-miterlimit="22.9256"/>
<path d="M38.793 18.543H52.9326" stroke="#212121" stroke-width="1.3" stroke-miterlimit="22.9256"/>
<path fill-rule="evenodd" clip-rule="evenodd" d="M50.8824 17.6661C50.8824 14.9055 48.6237 12.6467 45.8631 12.6467C43.1026 12.6467 40.8438 14.9055 40.8438 17.6661V20.8843C40.8438 23.6449 43.1025 25.9037 45.8631 25.9037C48.6237 25.9037 50.8824 23.6449 50.8824 20.8843V17.6661Z" stroke="#212121" stroke-width="1.3" stroke-miterlimit="22.9256"/>
<path d="M45.8613 15.4525V10.6785" stroke="#212121" stroke-width="1.3" stroke-miterlimit="22.9256"/>
<path d="M12.5019 25.3086L12.7581 27.8679M7.51953 27.8679L7.77574 25.3086" stroke="#212121" stroke-width="1.3" stroke-miterlimit="22.9256"/>
<path d="M12.7569 27.8679L14.8224 28.9803C15.6513 29.4267 16.5045 29.8184 17.1936 30.3041M13.8857 41.2455H1.63672V32.7965C1.63672 30.6978 3.60551 29.9753 5.45284 28.9804L7.51838 27.868" stroke="#212121" stroke-width="1.3" stroke-miterlimit="22.9256"/>
<path d="M7.51953 27.8679L10.1388 30.7543L12.7581 27.8679" stroke="#212121" stroke-width="1.3" stroke-miterlimit="22.9256"/>
<path d="M17.208 18.543H3.06836" stroke="#212121" stroke-width="1.3" stroke-miterlimit="22.9256"/>
<path fill-rule="evenodd" clip-rule="evenodd" d="M5.11914 17.6661C5.11914 14.9055 7.37788 12.6467 10.1384 12.6467C12.8989 12.6467 15.1578 14.9055 15.1578 17.6661V20.8843C15.1578 23.6449 12.899 25.9037 10.1384 25.9037C7.37788 25.9037 5.11914 23.6449 5.11914 20.8843V17.6661Z" stroke="#212121" stroke-width="1.3" stroke-miterlimit="22.9256"/>
<path d="M10.1387 15.4525V10.6785" stroke="#212121" stroke-width="1.3" stroke-miterlimit="22.9256"/>
<path d="M10.1387 30.7542V40.4497" stroke="#212121" stroke-width="1.3" stroke-miterlimit="22.9256"/>
<path d="M13.8858 37.3091H1.63672" stroke="#212121" stroke-width="1.3" stroke-miterlimit="22.9256"/>
<path d="M1.63672 34.1265H13.8858" stroke="#212121" stroke-width="1.3" stroke-miterlimit="22.9256"/>
<path d="M28 29.2986V50.7933" stroke="#212121" stroke-width="1.3" stroke-miterlimit="22.9256"/>
<path d="M38.9316 35.7178V34.1265M38.9316 38.9005V37.3091" stroke="#212121" stroke-width="1.3" stroke-miterlimit="22.9256"/>
<path d="M35.1093 28.4094L31.7851 32.0404L28 29.2987" stroke="#212121" stroke-width="1.3" stroke-miterlimit="22.9256"/>
</svg>
