<svg width="46" height="46" viewBox="0 0 46 46" fill="none" xmlns="http://www.w3.org/2000/svg">
<path d="M26.5938 44.5625C24.0644 44.5625 21.9705 42.6841 21.6199 40.25H13.9539L14.8832 41.1793L13.8668 42.1957L11.7106 40.0394C11.5702 39.899 11.5 39.7151 11.5 39.5312C11.5 39.3474 11.5702 39.1635 11.7106 39.0231L13.8668 36.8668L14.8832 37.8832L13.9539 38.8125H21.6199C21.9705 36.3784 24.0644 34.5 26.5938 34.5C29.3677 34.5 31.625 36.757 31.625 39.5312C31.625 42.3055 29.3677 44.5625 26.5938 44.5625ZM26.5938 35.9375C24.6123 35.9375 23 37.5498 23 39.5312C23 41.5127 24.6123 43.125 26.5938 43.125C28.5752 43.125 30.1875 41.5127 30.1875 39.5312C30.1875 37.5498 28.5752 35.9375 26.5938 35.9375Z" fill="black"/>
<path d="M6.46875 44.5625C3.69482 44.5625 1.4375 42.3055 1.4375 39.5312C1.4375 36.757 3.69482 34.5 6.46875 34.5C9.24268 34.5 11.5 36.757 11.5 39.5312C11.5 42.3055 9.24268 44.5625 6.46875 44.5625ZM6.46875 35.9375C4.48727 35.9375 2.875 37.5498 2.875 39.5312C2.875 41.5127 4.48727 43.125 6.46875 43.125C8.45023 43.125 10.0625 41.5127 10.0625 39.5312C10.0625 37.5498 8.45023 35.9375 6.46875 35.9375Z" fill="black"/>
<path d="M29.4688 17.9688C31.9981 17.9688 34.0919 19.8471 34.4426 22.2812H35.5781C40.5322 22.2812 44.5625 26.3116 44.5625 31.2656C44.5625 36.2197 40.5322 40.25 35.5781 40.25H34.0789L35.0082 41.1793L33.9918 42.1957L31.8356 40.0394C31.6952 39.899 31.625 39.7151 31.625 39.5312C31.625 39.3474 31.6952 39.1635 31.8356 39.0231L33.9918 36.8668L35.0082 37.8832L34.0789 38.8125H35.5781C39.7397 38.8125 43.125 35.4269 43.125 31.2656C43.125 27.1044 39.7397 23.7188 35.5781 23.7188H34.4426C34.0919 26.1529 31.9981 28.0312 29.4688 28.0312C26.6948 28.0312 24.4375 25.7743 24.4375 23C24.4375 20.2257 26.6948 17.9688 29.4688 17.9688ZM29.4688 26.5938C31.4502 26.5938 33.0625 24.9815 33.0625 23C33.0625 21.0185 31.4502 19.4062 29.4688 19.4062C27.4873 19.4062 25.875 21.0185 25.875 23C25.875 24.9815 27.4873 26.5938 29.4688 26.5938Z" fill="black"/>
<path d="M26.8043 3.80432L27.8207 4.82068L26.8914 5.75H34.5574C34.908 3.31588 37.0019 1.4375 39.5312 1.4375C42.3052 1.4375 44.5625 3.69448 44.5625 6.46875C44.5625 9.24302 42.3052 11.5 39.5312 11.5C37.0019 11.5 34.908 9.62162 34.5574 7.1875H26.8914L27.8207 8.11682L26.8043 9.13318L24.6481 6.97693C24.5077 6.83655 24.4375 6.65265 24.4375 6.46875C24.4375 6.28485 24.5077 6.10095 24.6481 5.96057L26.8043 3.80432ZM39.5312 10.0625C41.5127 10.0625 43.125 8.45023 43.125 6.46875C43.125 4.48727 41.5127 2.875 39.5312 2.875C37.5498 2.875 35.9375 4.48727 35.9375 6.46875C35.9375 8.45023 37.5498 10.0625 39.5312 10.0625Z" fill="black"/>
<path d="M1.4375 14.7344C1.4375 9.78033 5.46783 5.75 10.4219 5.75H14.4324C14.783 3.31588 16.8769 1.4375 19.4062 1.4375C22.1802 1.4375 24.4375 3.69448 24.4375 6.46875C24.4375 9.24302 22.1802 11.5 19.4062 11.5C16.8769 11.5 14.783 9.62162 14.4324 7.1875H10.4219C6.26028 7.1875 2.875 10.5731 2.875 14.7344C2.875 18.8956 6.26028 22.2812 10.4219 22.2812H21.9836L21.0543 21.3519L22.0707 20.3356L24.2269 22.4918C24.3673 22.6322 24.4375 22.8161 24.4375 23C24.4375 23.1839 24.3673 23.3678 24.2269 23.5082L22.0707 25.6644L21.0543 24.6481L21.9836 23.7188H10.4219C5.46783 23.7188 1.4375 19.6884 1.4375 14.7344ZM19.4062 10.0625C21.3877 10.0625 23 8.45023 23 6.46875C23 4.48727 21.3877 2.875 19.4062 2.875C17.4248 2.875 15.8125 4.48727 15.8125 6.46875C15.8125 8.45023 17.4248 10.0625 19.4062 10.0625Z" fill="black"/>
</svg>
