<svg width="56" height="56" viewBox="0 0 56 56" fill="none" xmlns="http://www.w3.org/2000/svg">
<path d="M27.9996 53.375C26.7746 53.375 25.6262 52.8938 24.7621 52.0297L20.8465 48.1141C20.3105 47.5781 19.5996 47.2828 18.8449 47.2828H13.2996C10.773 47.2828 8.7168 45.2266 8.7168 42.7V37.1547C8.7168 36.4 8.42148 35.6891 7.88555 35.1531L3.96992 31.2375C2.18711 29.4547 2.18711 26.5453 3.96992 24.7625L7.88555 20.8469C8.42148 20.3109 8.7168 19.6 8.7168 18.8453V13.3C8.7168 10.7734 10.773 8.71719 13.2996 8.71719H18.8449C19.5996 8.71719 20.3105 8.42188 20.8465 7.88594L24.7621 3.97031C25.6262 3.10625 26.7746 2.625 27.9996 2.625C29.2246 2.625 30.373 3.10625 31.2371 3.97031L35.1527 7.88594C35.6887 8.42188 36.3996 8.71719 37.1543 8.71719H42.6996C45.2262 8.71719 47.2824 10.7734 47.2824 13.3V18.8453C47.2824 19.6 47.5777 20.3109 48.1137 20.8469L52.0293 24.7625C53.8121 26.5453 53.8121 29.4547 52.0293 31.2375L48.1137 35.1531C47.5777 35.6891 47.2824 36.4 47.2824 37.1547V42.7C47.2824 45.2266 45.2262 47.2828 42.6996 47.2828H37.1543C36.3996 47.2828 35.6887 47.5781 35.1527 48.1141L31.2371 52.0297C30.373 52.8938 29.2246 53.375 27.9996 53.375ZM13.2996 10.4672C11.7355 10.4672 10.4668 11.7359 10.4668 13.3V18.8453C10.4668 20.0703 9.98555 21.2188 9.12148 22.0828L5.20586 25.9984C4.10117 27.1031 4.10117 28.8969 5.20586 30.0016L9.12148 33.9172C9.98555 34.7812 10.4668 35.9297 10.4668 37.1547V42.7C10.4668 44.2641 11.7355 45.5328 13.2996 45.5328H18.8449C20.0699 45.5328 21.2184 46.0141 22.0824 46.8781L25.998 50.7938C26.534 51.3297 27.2449 51.625 27.9996 51.625C28.7543 51.625 29.4652 51.3297 30.0012 50.7938L33.9168 46.8781C34.7809 46.0141 35.9293 45.5328 37.1543 45.5328H42.6996C44.2637 45.5328 45.5324 44.2641 45.5324 42.7V37.1547C45.5324 35.9297 46.0137 34.7812 46.8777 33.9172L50.7934 30.0016C51.898 28.8969 51.898 27.1031 50.7934 25.9984L46.8777 22.0828C46.0137 21.2188 45.5324 20.0703 45.5324 18.8453V13.3C45.5324 11.7359 44.2637 10.4672 42.6996 10.4672H37.1543C35.9293 10.4672 34.7809 9.98594 33.9168 9.12188L30.0012 5.20625C29.4652 4.67031 28.7543 4.375 27.9996 4.375C27.2449 4.375 26.534 4.67031 25.998 5.20625L22.0824 9.12188C21.2184 9.98594 20.0699 10.4672 18.8449 10.4672H13.2996Z" fill="black"/>
<path d="M27.9992 43.9796C19.1836 43.9796 12.0195 36.8046 12.0195 28C12.0195 19.1953 19.1836 12.0203 27.9992 12.0203C36.8148 12.0203 43.9789 19.1843 43.9789 28C43.9789 36.8156 36.8148 43.9796 27.9992 43.9796ZM27.9992 13.7703C20.1461 13.7703 13.7695 20.1578 13.7695 28C13.7695 35.8421 20.1461 42.2296 27.9992 42.2296C35.8523 42.2296 42.2289 35.8421 42.2289 28C42.2289 20.1578 35.8523 13.7703 27.9992 13.7703Z" fill="black"/>
<path d="M34.1245 36.7501H21.8745C21.4808 36.7501 21.1417 36.4876 21.0323 36.1157L17.5323 23.7892C17.4339 23.4392 17.5651 23.0563 17.8604 22.8376C18.1558 22.6188 18.5604 22.6079 18.8558 22.8157L23.3511 25.8126L27.2448 19.5782C27.4089 19.3267 27.6823 19.1626 27.9886 19.1626C28.2948 19.1626 28.5683 19.3157 28.7323 19.5782L32.6261 25.8126L37.1214 22.8157C37.4276 22.6079 37.8214 22.6188 38.1167 22.8376C38.412 23.0563 38.5433 23.4282 38.4448 23.7892L34.9448 36.1157C34.8573 36.4876 34.5183 36.7501 34.1245 36.7501ZM22.5308 35.0001H33.4683L36.137 25.5938L32.8667 27.7813C32.6698 27.9126 32.4292 27.9563 32.1995 27.9126C31.9698 27.8579 31.762 27.7267 31.6417 27.5188L27.9995 21.7001L24.3683 27.5079C24.2479 27.7048 24.0401 27.847 23.8104 27.9017C23.5808 27.9563 23.3401 27.9017 23.1433 27.7704L19.8729 25.5829L22.5308 35.0001Z" fill="black"/>
</svg>
