<svg width="48" height="46" viewBox="0 0 48 46" fill="none" xmlns="http://www.w3.org/2000/svg">
<path d="M1.32487 16.7036C3.0059 18.0239 5.33577 18.6608 8.25299 18.5965C8.38649 18.5995 8.51868 18.601 8.64955 18.6009C11.3811 18.6009 13.5772 17.9634 15.1812 16.7037C15.2899 16.619 15.3804 16.5132 15.4472 16.3926C15.514 16.272 15.5557 16.1392 15.5699 16.0021C15.8731 13.1752 15.4457 11.2541 14.2633 10.1293C14.2515 10.1181 14.2393 10.1072 14.2266 10.0969C13.6251 9.58975 12.9293 9.2063 12.1793 8.9685C11.4293 8.7307 10.6397 8.64321 9.85583 8.71106C9.755 8.71868 9.6573 8.74951 9.57034 8.80112C9.48339 8.85274 9.40954 8.92375 9.35455 9.00862C9.15337 9.31931 8.73121 9.51234 8.25299 9.51234C7.77477 9.51234 7.35299 9.31931 7.15133 9.00862C7.09634 8.92374 7.02248 8.85272 6.93551 8.8011C6.84853 8.74949 6.75081 8.71867 6.64996 8.71106C5.86609 8.64323 5.07654 8.73072 4.32653 8.96852C3.57653 9.20632 2.88082 9.58976 2.27924 10.0969C2.26668 10.1073 2.2544 10.1181 2.24258 10.1293C1.06021 11.2543 0.632804 13.1752 0.935898 16.0021C0.950166 16.1392 0.991973 16.272 1.05881 16.3925C1.12565 16.5131 1.21614 16.6189 1.32487 16.7036ZM3.13049 11.0964C4.06883 10.3353 5.0984 9.978 6.2684 10.0056C6.7393 10.5238 7.45658 10.8248 8.25327 10.8248C9.04996 10.8248 9.76715 10.5238 10.2381 10.0056C11.4077 9.97743 12.4377 10.3353 13.376 11.0964C14.2031 11.9005 14.5063 13.4632 14.2776 15.7433C12.8442 16.8241 10.8228 17.3422 8.26818 17.284H8.25327H8.23827C5.68405 17.3413 3.66224 16.824 2.2289 15.7432C2.00015 13.4634 2.30334 11.9001 3.13068 11.0964H3.13049ZM8.25327 8.44471C9.05398 8.44471 9.8367 8.20728 10.5025 7.76243C11.1682 7.31758 11.6871 6.6853 11.9935 5.94555C12.2999 5.20579 12.3801 4.39179 12.2239 3.60647C12.0677 2.82115 11.6821 2.0998 11.1159 1.53362C10.5497 0.967444 9.82834 0.581878 9.04302 0.42568C8.2577 0.269482 7.4437 0.349667 6.70395 0.656096C5.9642 0.962524 5.33193 1.48143 4.8871 2.1472C4.44227 2.81297 4.20485 3.5957 4.20487 4.3964C4.20608 5.46972 4.633 6.49874 5.39197 7.25768C6.15093 8.01663 7.17995 8.44352 8.25327 8.44471ZM8.25327 1.6605C8.79438 1.6605 9.32334 1.82095 9.77326 2.12158C10.2232 2.4222 10.5738 2.84949 10.7809 3.34942C10.988 3.84934 11.0422 4.39944 10.9366 4.93015C10.831 5.46087 10.5705 5.94836 10.1878 6.33098C9.80523 6.7136 9.31773 6.97417 8.78702 7.07974C8.25631 7.1853 7.70621 7.13112 7.20629 6.92405C6.70636 6.71698 6.27907 6.36631 5.97845 5.91639C5.67782 5.46647 5.51737 4.93751 5.51737 4.3964C5.51816 3.67104 5.80666 2.97561 6.31957 2.4627C6.83248 1.94979 7.52791 1.66129 8.25327 1.6605ZM45.7193 37.148C45.1177 36.6409 44.4219 36.2576 43.6719 36.0198C42.9219 35.782 42.1324 35.6945 41.3485 35.7622C41.2477 35.7699 41.15 35.8007 41.063 35.8523C40.9761 35.9039 40.9022 35.9749 40.8472 36.0598C40.646 36.3705 40.2239 36.5635 39.7456 36.5635C39.2673 36.5635 38.8456 36.3705 38.644 36.0598C38.589 35.9749 38.5152 35.9039 38.4282 35.8523C38.3413 35.8007 38.2436 35.7699 38.1427 35.7622C37.3589 35.6945 36.5693 35.782 35.8193 36.0198C35.0693 36.2576 34.3736 36.6409 33.7719 37.148C33.7593 37.1583 33.7471 37.1692 33.7353 37.1804C32.5529 38.3054 32.1255 40.2262 32.4286 43.0532C32.4428 43.1903 32.4845 43.3231 32.5513 43.4437C32.6181 43.5642 32.7086 43.6701 32.8173 43.7548C34.4985 45.075 36.8298 45.7109 39.7454 45.6476C39.8792 45.6505 40.0113 45.652 40.1425 45.652C42.8736 45.652 45.0696 45.0145 46.6738 43.7549C46.7825 43.6701 46.8729 43.5642 46.9397 43.4437C47.0065 43.3231 47.0482 43.1903 47.0625 43.0532C47.3656 40.2263 46.9383 38.3053 45.7559 37.1804C45.7443 37.1692 45.732 37.1583 45.7193 37.148ZM45.7701 42.7945C44.3365 43.8753 42.3157 44.3936 39.7607 44.3351H39.7457H39.7308C37.1757 44.3935 35.1549 43.8752 33.7214 42.7944C33.4927 40.5146 33.7964 38.9516 34.6231 38.1475C35.5614 37.3865 36.5912 37.0282 37.761 37.0567C38.2319 37.575 38.9492 37.876 39.7458 37.876C40.5424 37.876 41.2597 37.575 41.7306 37.0567C42.9014 37.0274 43.9303 37.3865 44.8685 38.1475C45.6956 38.9517 45.9988 40.5144 45.7701 42.7945ZM35.6973 31.4474C35.6972 32.2481 35.9346 33.0309 36.3795 33.6966C36.8243 34.3624 37.4566 34.8813 38.1963 35.1878C38.9361 35.4942 39.7501 35.5744 40.5354 35.4182C41.3207 35.262 42.0421 34.8765 42.6083 34.3103C43.1745 33.7441 43.5601 33.0227 43.7163 32.2374C43.8725 31.4521 43.7923 30.6381 43.4859 29.8983C43.1795 29.1586 42.6606 28.5263 41.9948 28.0814C41.329 27.6366 40.5463 27.3992 39.7456 27.3992C38.6723 27.4004 37.6433 27.8273 36.8844 28.5862C36.1254 29.3451 35.6985 30.3741 35.6973 31.4474ZM42.4815 31.4474C42.4815 31.9885 42.3211 32.5175 42.0205 32.9674C41.7199 33.4174 41.2926 33.7681 40.7927 33.9752C40.2928 34.1823 39.7427 34.2365 39.2119 34.1309C38.6812 34.0254 38.1937 33.7648 37.8111 33.3822C37.4284 32.9996 37.1678 32.5121 37.0623 31.9814C36.9567 31.4507 37.0108 30.9006 37.2179 30.4006C37.425 29.9007 37.7757 29.4734 38.2256 29.1728C38.6755 28.8721 39.2045 28.7117 39.7456 28.7117C40.4709 28.7125 41.1663 29.001 41.6792 29.5138C42.1921 30.0267 42.4806 30.7221 42.4815 31.4474ZM14.3619 37.148C13.7603 36.6409 13.0646 36.2575 12.3146 36.0197C11.5645 35.7819 10.775 35.6944 9.99112 35.7622C9.89028 35.7699 9.79258 35.8007 9.70562 35.8523C9.61867 35.9039 9.54482 35.9749 9.48983 36.0598C9.28855 36.3705 8.86649 36.5635 8.38818 36.5635C7.90987 36.5635 7.48818 36.3705 7.28662 36.0598C7.23163 35.9749 7.15778 35.9039 7.07083 35.8523C6.98387 35.8007 6.88617 35.7699 6.78534 35.7622C6.00146 35.6945 5.21191 35.7819 4.4619 36.0197C3.71189 36.2575 3.01615 36.6409 2.41452 37.148C2.40187 37.1583 2.38959 37.1692 2.37777 37.1804C1.1954 38.3054 0.768085 40.2262 1.07118 43.0532C1.08537 43.1903 1.12712 43.3231 1.19391 43.4437C1.2607 43.5642 1.35116 43.6701 1.45987 43.7548C3.06412 45.0145 5.25974 45.652 7.99105 45.652C8.1223 45.652 8.25468 45.6506 8.38818 45.6476C11.3038 45.7115 13.6353 45.075 15.3163 43.7549C15.425 43.6701 15.5154 43.5643 15.5822 43.4437C15.649 43.3231 15.6908 43.1903 15.705 43.0532C16.0082 40.2263 15.5808 38.3053 14.3984 37.1804C14.3864 37.1692 14.3742 37.1583 14.3619 37.148ZM14.4126 42.7945C12.9791 43.8753 10.9584 44.3926 8.40318 44.3351H8.38818H8.37318C5.81868 44.3935 3.79743 43.8752 2.3638 42.7944C2.13515 40.5146 2.43834 38.9516 3.26549 38.1475C4.20384 37.3865 5.23368 37.0282 6.4034 37.0567C6.8743 37.575 7.59158 37.876 8.38818 37.876C9.18477 37.876 9.90215 37.575 10.373 37.0567C11.5439 37.0274 12.5727 37.3865 13.511 38.1475C14.3377 38.9517 14.641 40.5144 14.4122 42.7945H14.4126ZM8.3879 35.4958C9.18857 35.4958 9.97126 35.2583 10.637 34.8135C11.3027 34.3687 11.8216 33.7364 12.128 32.9967C12.4344 32.2569 12.5145 31.443 12.3583 30.6577C12.2021 29.8724 11.8166 29.1511 11.2504 28.5849C10.6842 28.0187 9.9629 27.6332 9.17761 27.477C8.39233 27.3208 7.57835 27.4009 6.83862 27.7073C6.0989 28.0137 5.46664 28.5326 5.02179 29.1983C4.57695 29.864 4.33951 30.6467 4.33949 31.4474C4.34068 32.5207 4.76759 33.5498 5.52656 34.3087C6.28552 35.0677 7.31456 35.4946 8.3879 35.4958ZM8.3879 28.7117C8.92899 28.7117 9.45793 28.8722 9.90782 29.1728C10.3577 29.4734 10.7084 29.9007 10.9154 30.4006C11.1224 30.9005 11.1766 31.4506 11.071 31.9813C10.9654 32.512 10.7049 32.9995 10.3222 33.3821C9.93962 33.7647 9.45214 34.0252 8.92144 34.1308C8.39074 34.2363 7.84066 34.1821 7.34077 33.975C6.84087 33.7679 6.41361 33.4173 6.11301 32.9674C5.81241 32.5174 5.65197 31.9885 5.65199 31.4474C5.65283 30.7221 5.94136 30.0267 6.45426 29.5138C6.96717 29.001 7.66257 28.7125 8.3879 28.7117ZM5.80255 20.078C5.40734 21.6066 5.20778 23.1792 5.20865 24.7582C5.20865 25.5626 5.26013 26.3662 5.36277 27.1641C5.38507 27.3367 5.33789 27.5111 5.23161 27.6489C5.12533 27.7867 4.96866 27.8767 4.79605 27.899C4.76789 27.9026 4.73952 27.9044 4.71112 27.9044C4.55183 27.9042 4.39805 27.8461 4.27846 27.7408C4.15886 27.6356 4.08163 27.4905 4.06115 27.3325C3.73422 24.7977 3.89408 22.2238 4.53215 19.7489C4.578 19.5829 4.68727 19.4416 4.8364 19.3554C4.98552 19.2692 5.16254 19.2451 5.32927 19.2883C5.49599 19.3315 5.63906 19.4385 5.7276 19.5862C5.81614 19.734 5.84306 19.9106 5.80255 20.078ZM31.4073 42.4532C31.4386 42.5335 31.4538 42.6191 31.4521 42.7053C31.4503 42.7915 31.4316 42.8764 31.397 42.9554C31.3624 43.0343 31.3126 43.1057 31.2504 43.1653C31.1882 43.225 31.1149 43.2719 31.0346 43.3032C26.6356 45.0125 21.7736 45.11 17.3096 43.5785C17.1451 43.5217 17.0098 43.402 16.9335 43.2455C16.8573 43.0891 16.8463 42.9087 16.903 42.7442C16.9597 42.5796 17.0795 42.4444 17.236 42.3681C17.3924 42.2919 17.5728 42.2809 17.7373 42.3376C21.907 43.7676 26.4481 43.6765 30.5571 42.0805C30.6373 42.0491 30.723 42.0339 30.8092 42.0356C30.8954 42.0374 30.9804 42.0561 31.0594 42.0907C31.1383 42.1253 31.2097 42.1751 31.2694 42.2373C31.3291 42.2995 31.3759 42.3729 31.4073 42.4532ZM42.2325 27.1644C42.538 24.7959 42.3887 22.3909 41.7928 20.0783C41.7491 19.9099 41.7741 19.7309 41.8624 19.5809C41.9506 19.4309 42.0949 19.3221 42.2633 19.2784C42.4318 19.2347 42.6107 19.2597 42.7608 19.348C42.9108 19.4362 43.0196 19.5804 43.0633 19.7489C43.7013 22.2238 43.8611 24.7977 43.5342 27.3325C43.5137 27.4905 43.4365 27.6356 43.3169 27.7408C43.1973 27.8461 43.0435 27.9042 42.8842 27.9044C42.8558 27.9044 42.8275 27.9026 42.7993 27.899C42.7138 27.8879 42.6314 27.8602 42.5566 27.8173C42.4819 27.7744 42.4163 27.7171 42.3637 27.6489C42.3111 27.5807 42.2724 27.5027 42.2499 27.4195C42.2274 27.3363 42.2214 27.2495 42.2325 27.1641V27.1644ZM13.4874 8.49131C13.3992 8.34131 13.3741 8.16241 13.4178 7.99395C13.4615 7.82549 13.5702 7.68126 13.7202 7.593C16.7492 5.81706 20.1938 4.87311 23.705 4.85675C27.2163 4.84038 30.6695 5.75218 33.7149 7.49981C33.8658 7.58666 33.9759 7.72987 34.0212 7.89794C34.0664 8.06601 34.043 8.24517 33.9562 8.39601C33.8693 8.54685 33.7261 8.65701 33.5581 8.70225C33.39 8.7475 33.2108 8.72413 33.06 8.63728C30.2156 7.00537 26.9904 6.15395 23.7112 6.16923C20.4319 6.18451 17.2148 7.06593 14.3857 8.72428C14.2357 8.8125 14.0568 8.83751 13.8883 8.79383C13.7199 8.75014 13.5757 8.64132 13.4874 8.49131ZM41.3485 8.71106C41.2477 8.71868 41.15 8.74951 41.063 8.80112C40.9761 8.85274 40.9022 8.92375 40.8472 9.00862C40.646 9.31931 40.2239 9.51234 39.7456 9.51234C39.2673 9.51234 38.8456 9.31931 38.644 9.00862C38.589 8.92375 38.5152 8.85274 38.4282 8.80112C38.3413 8.74951 38.2436 8.71868 38.1427 8.71106C37.3589 8.64329 36.5693 8.7308 35.8193 8.9686C35.0693 9.2064 34.3736 9.58981 33.7719 10.0969C33.7594 10.1072 33.7472 10.1181 33.7353 10.1293C32.5529 11.2543 32.1255 13.1752 32.4286 16.0021C32.4428 16.1392 32.4846 16.272 32.5513 16.3925C32.6181 16.5131 32.7086 16.6189 32.8173 16.7036C34.4983 18.0238 36.8303 18.6604 39.7454 18.5965C39.879 18.5995 40.0112 18.601 40.142 18.6009C42.8736 18.6009 45.0696 17.9634 46.6738 16.7037C46.7825 16.6189 46.8729 16.5131 46.9397 16.3925C47.0065 16.272 47.0482 16.1392 47.0625 16.0021C47.3656 13.1752 46.9383 11.2542 45.7559 10.1293C45.7441 10.1181 45.7318 10.1072 45.7191 10.0969C45.1176 9.58977 44.4219 9.20634 43.6719 8.96854C42.9219 8.73074 42.1324 8.64324 41.3485 8.71106ZM45.7701 15.7438C44.3367 16.8245 42.316 17.3427 39.7607 17.2845H39.7457H39.7308C37.175 17.3421 35.1548 16.8245 33.7214 15.7437C33.4927 13.4639 33.7964 11.901 34.6231 11.0969C35.5614 10.3357 36.5911 9.97865 37.761 10.006C38.2319 10.5243 38.9492 10.8253 39.7458 10.8253C40.5424 10.8253 41.2597 10.5243 41.7306 10.006C42.9008 9.9779 43.9303 10.3357 44.8685 11.0969C45.6955 11.9006 45.9987 13.4635 45.7701 15.7438ZM39.7456 8.44518C40.5463 8.4452 41.329 8.20778 41.9948 7.76294C42.6606 7.31811 43.1795 6.68583 43.4859 5.94608C43.7923 5.20633 43.8725 4.39232 43.7163 3.607C43.5601 2.82167 43.1745 2.10031 42.6083 1.53412C42.0421 0.967936 41.3208 0.582361 40.5355 0.426155C39.7501 0.26995 38.9361 0.35013 38.1964 0.656556C37.4566 0.962981 36.8243 1.48189 36.3795 2.14766C35.9347 2.81343 35.6973 3.59616 35.6973 4.39687C35.6986 5.47009 36.1256 6.49895 36.8845 7.25779C37.6435 8.01662 38.6724 8.44347 39.7456 8.44471V8.44518ZM39.7456 1.66096C40.2867 1.66095 40.8157 1.82139 41.2656 2.122C41.7155 2.42262 42.0662 2.8499 42.2733 3.34982C42.4804 3.84974 42.5346 4.39984 42.429 4.93056C42.3235 5.46128 42.0629 5.94878 41.6803 6.33142C41.2977 6.71405 40.8102 6.97463 40.2795 7.0802C39.7487 7.18577 39.1986 7.1316 38.6987 6.92453C38.1988 6.71746 37.7715 6.36679 37.4709 5.91687C37.1702 5.46695 37.0098 4.93799 37.0098 4.39687C37.0104 3.67144 37.2989 2.97591 37.8118 2.4629C38.3247 1.94989 39.0202 1.66132 39.7456 1.6605V1.66096ZM19.0199 26.5762L18.0205 29.632C17.909 29.9713 17.9081 30.3373 18.0179 30.6771C18.1277 31.017 18.3425 31.3132 18.6314 31.5232C18.9204 31.7331 19.2685 31.8459 19.6257 31.8453C19.9828 31.8447 20.3306 31.7308 20.6188 31.5199L23.2162 29.6252C23.2794 29.5761 23.3572 29.5494 23.4372 29.5494C23.5172 29.5494 23.595 29.5761 23.6582 29.6252L26.2551 31.5199C26.5434 31.7302 26.891 31.8437 27.2479 31.844C27.6048 31.8444 27.9527 31.7315 28.2414 31.5217C28.5301 31.3119 28.7449 31.016 28.8549 30.6765C28.9649 30.3369 28.9644 29.9713 28.8534 29.632L27.8541 26.5762C27.8269 26.501 27.8256 26.4188 27.8504 26.3427C27.8751 26.2666 27.9244 26.2009 27.9906 26.156L30.5952 24.2716C30.8841 24.0625 31.0993 23.7673 31.21 23.4283C31.3207 23.0893 31.3212 22.724 31.2113 22.3847C31.1015 22.0455 30.887 21.7497 30.5986 21.5399C30.3103 21.3302 29.9628 21.2171 29.6062 21.217H29.6028L26.3877 21.2231H26.3869C26.3071 21.2254 26.2288 21.2011 26.1643 21.1541C26.0999 21.1071 26.0528 21.04 26.0306 20.9633L25.0431 17.9038C24.9334 17.5642 24.7189 17.2681 24.4303 17.0581C24.1418 16.848 23.7941 16.7349 23.4372 16.7349C23.0803 16.7349 22.7326 16.848 22.4441 17.0581C22.1556 17.2681 21.941 17.5642 21.8314 17.9038L20.8437 20.9633C20.8215 21.04 20.7745 21.1071 20.71 21.1541C20.6455 21.2011 20.5672 21.2254 20.4875 21.2231H20.4865L17.2716 21.217H17.2682C16.9116 21.2171 16.5641 21.3301 16.2758 21.5399C15.9874 21.7497 15.7729 22.0454 15.663 22.3847C15.5532 22.724 15.5536 23.0893 15.6643 23.4283C15.775 23.7673 15.9902 24.0625 16.2791 24.2716L18.8837 26.156C18.9498 26.201 18.9991 26.2667 19.0237 26.3428C19.0484 26.4189 19.0471 26.501 19.0199 26.5762ZM16.9113 22.7887C16.9337 22.7123 16.9808 22.6453 17.0452 22.5985C17.1097 22.5516 17.1879 22.5274 17.2675 22.5297H17.2685L20.4833 22.5358H20.4868C20.8439 22.5366 21.1919 22.4237 21.4806 22.2135C21.7692 22.0034 21.9835 21.7068 22.0925 21.3667L23.0807 18.3067C23.105 18.2312 23.1527 18.1654 23.2168 18.1187C23.281 18.072 23.3582 18.0468 23.4376 18.0468C23.5169 18.0468 23.5942 18.072 23.6583 18.1187C23.7225 18.1654 23.7701 18.2312 23.7945 18.3067L24.7821 21.3663C24.891 21.7063 25.1053 22.0029 25.3939 22.2131C25.6826 22.4233 26.0306 22.5361 26.3877 22.5353H26.3912L29.6061 22.5292H29.6071C29.6863 22.5293 29.7635 22.5545 29.8275 22.6011C29.8915 22.6477 29.9392 22.7135 29.9635 22.7888C29.9879 22.8642 29.9878 22.9454 29.9632 23.0207C29.9386 23.096 29.8908 23.1615 29.8266 23.208L27.2222 25.0924C26.9319 25.3014 26.7158 25.5974 26.6053 25.9376C26.4947 26.2777 26.4955 26.6443 26.6075 26.984L27.6068 30.0402C27.6315 30.1156 27.6315 30.1968 27.6071 30.2723C27.5827 30.3477 27.5349 30.4134 27.4708 30.46C27.4066 30.5067 27.3293 30.5317 27.25 30.5317C27.1707 30.5316 27.0935 30.5064 27.0294 30.4597L24.4326 28.565C24.1441 28.3536 23.7957 28.2396 23.4381 28.2396C23.0805 28.2396 22.7321 28.3536 22.4436 28.565L19.8461 30.4597C19.782 30.5064 19.7048 30.5316 19.6255 30.5317C19.5462 30.5317 19.469 30.5067 19.4048 30.46C19.3407 30.4134 19.2929 30.3477 19.2685 30.2723C19.2441 30.1968 19.2442 30.1156 19.2688 30.0402L20.2682 26.984C20.3801 26.6443 20.3809 26.2778 20.2704 25.9376C20.1598 25.5975 19.9438 25.3014 19.6536 25.0924L17.049 23.208C16.9827 23.1632 16.9333 23.0977 16.9083 23.0217C16.8834 22.9457 16.8844 22.8636 16.9113 22.7883V22.7887Z" fill="#212121"/>
</svg>
