<svg width="52" height="52" viewBox="0 0 52 52" fill="none" xmlns="http://www.w3.org/2000/svg">
<g clip-path="url(#clip0_204_2046)">
<path d="M51.4101 30.751L45.501 16.1516C45.3197 15.7025 44.981 15.3558 44.5319 15.1667C44.0828 14.9855 43.5864 14.9934 43.1452 15.1904L38.544 17.2388C37.764 17.5697 37.3464 18.4207 37.5119 19.2322L36.2907 19.9176C35.881 20.154 35.3846 20.2407 34.904 20.1776L26.4185 18.9249C24.9373 18.7122 23.4167 19.2007 22.3452 20.2328L21.7228 20.8316H17.0113C16.7985 20.8316 16.5858 20.7528 16.4282 20.611L16.0107 20.2564C16.3022 19.5394 16.1052 18.7043 15.4749 18.2079L11.9137 15.3952C11.5355 15.0958 11.0628 14.9619 10.5822 15.0328C10.1094 15.0958 9.67612 15.3558 9.39248 15.734L0.812479 27.3631C0.245206 28.1273 0.379146 29.1988 1.13551 29.8055L4.68884 32.6104C5.01187 32.8625 5.39005 32.9885 5.78399 32.9885C5.86278 32.9885 5.94945 32.9807 6.02824 32.9728C6.50096 32.9097 6.92642 32.6576 7.21005 32.2637L7.24157 32.2243L7.75369 32.6104C8.05309 32.8231 8.22642 33.1855 8.22642 33.5637V35.6831L6.90278 37.3849C5.72096 38.9213 5.98884 41.1352 7.51733 42.317C8.13975 42.8055 8.89612 43.0655 9.67612 43.0655C9.81793 43.0655 9.96763 43.0576 10.1094 43.0419C10.267 43.0182 10.4167 42.9788 10.5664 42.9394C10.5664 42.9867 10.5585 43.0261 10.5585 43.0734C10.5585 44.0819 11.0155 45.0273 11.8034 45.6734C12.4179 46.1619 13.1585 46.4061 13.8913 46.4061C14.3482 46.4061 14.8052 46.3037 15.2307 46.1225V46.1619C15.341 46.9891 15.7743 47.7219 16.4046 48.1867L16.5464 48.297C17.0822 48.691 17.7204 48.9037 18.3743 48.9037C18.524 48.9037 18.6737 48.8958 18.8313 48.8722C19.1701 48.8249 19.4773 48.7067 19.7767 48.557C19.9422 49.4001 20.4228 50.1249 21.1397 50.5819L21.2422 50.6528C21.7543 50.9916 22.3452 51.1649 22.944 51.1649C23.1646 51.1649 23.3773 51.1413 23.5979 51.094C24.4252 50.9207 25.1264 50.4322 25.5913 49.7231L25.7252 49.5182C26.2846 49.9437 26.9543 50.1643 27.6713 50.1643C28.5143 50.1643 29.3416 49.8176 29.9404 49.2267C30.5943 48.5728 30.941 47.6588 30.8779 46.737C30.8779 46.6819 30.8701 46.6188 30.8622 46.5637C31.784 46.6976 32.7531 46.4061 33.4543 45.7049C34.0846 45.0746 34.4076 44.1922 34.3367 43.3019C34.3288 43.1916 34.3131 43.0813 34.2894 42.971C35.3373 43.034 36.3694 42.6164 37.0785 41.7734C37.6852 41.0564 37.9688 40.111 37.8507 39.1813C37.8428 39.1104 37.8349 39.0473 37.8191 38.9764C38.7725 39.0788 39.7416 38.7479 40.4507 38.0546C41.2307 37.2746 41.5222 36.1716 41.3094 35.1316C41.3488 35.1237 41.3882 35.1316 41.4276 35.1237L43.9646 34.7691C44.2876 35.0607 44.721 35.2261 45.1543 35.2261C45.3985 35.2261 45.6428 35.1788 45.8713 35.0685L50.4882 33.0279C51.3549 32.6497 51.7646 31.6413 51.4101 30.751ZM5.83915 31.6334C5.72096 31.6491 5.61066 31.6176 5.52399 31.5467L1.98642 28.7498C1.81309 28.6079 1.77369 28.3558 1.90763 28.1746L10.4798 16.5219C10.5664 16.4037 10.6846 16.3722 10.7555 16.3643H10.8107C10.8816 16.3643 10.9761 16.3801 11.0628 16.451L14.6319 19.2637C14.8052 19.3976 14.8367 19.6497 14.7107 19.8152L14.6004 19.9649C14.5925 19.9728 14.5846 19.9807 14.5767 19.9885L9.6446 26.6697C9.63672 26.6776 9.63672 26.6776 9.62884 26.6855L8.69127 27.9619L6.54036 30.877C6.53248 30.8849 6.53248 30.8928 6.53248 30.8928L6.10702 31.4758C6.02824 31.5861 5.91793 31.6255 5.83915 31.6334ZM9.95187 41.6946C9.3846 41.7655 8.81733 41.6079 8.36036 41.2534C7.43066 40.5285 7.25733 39.1655 7.99006 38.2201L10.527 34.9504C10.9525 34.3988 11.5907 34.1152 12.2367 34.1152C12.6937 34.1152 13.1585 34.2649 13.5525 34.5643C14.0804 34.9819 14.3876 35.6043 14.3876 36.274C14.3876 36.7546 14.2301 37.2116 13.9307 37.6055L11.3937 40.8752C11.0313 41.3322 10.5191 41.6237 9.95187 41.6946ZM12.6622 44.6176C12.1894 44.2316 11.9216 43.6722 11.9216 43.0734C11.9216 42.6401 12.0713 42.2146 12.3628 41.8443L14.8919 38.5825C15.2149 38.157 15.6876 37.897 16.2155 37.834C16.2943 37.8182 16.3731 37.8182 16.444 37.8182C16.8931 37.8182 17.3343 37.9758 17.744 38.3067C18.5949 38.9922 18.7288 40.2449 18.0434 41.0958L15.4513 44.3261C14.7658 45.1613 13.5131 45.2952 12.6622 44.6176ZM18.6264 47.5249C18.1694 47.5879 17.7204 47.4776 17.3973 47.2413L17.2634 47.131C16.8852 46.8552 16.6488 46.4455 16.5858 45.9807C16.5228 45.5079 16.6567 45.0431 16.9482 44.6728L18.8707 42.2934C19.2016 41.8758 19.7058 41.6552 20.2101 41.6552C20.5646 41.6552 20.927 41.7655 21.2264 41.994C21.6597 42.317 21.9119 42.8213 21.9119 43.3649C21.9119 43.7194 21.8094 44.0504 21.6125 44.334C21.5967 44.3498 21.5888 44.3734 21.5731 44.397C21.5652 44.4049 21.5652 44.4128 21.5573 44.4128L21.5258 44.4601L19.7373 46.8552C19.4852 47.2255 19.0834 47.4619 18.6264 47.5249ZM25.347 47.5801L24.441 48.9904C24.181 49.3922 23.7791 49.6679 23.3064 49.7704C22.8416 49.8649 22.3688 49.7782 21.9828 49.5261L21.8804 49.4552C21.4628 49.1873 21.187 48.7698 21.1004 48.2891C21.0137 47.8085 21.1161 47.3279 21.4076 46.9261C21.8804 46.3037 22.4161 45.6104 22.6288 45.3504C22.6682 45.311 22.7076 45.2637 22.747 45.2322C22.7549 45.2322 22.7549 45.2243 22.7549 45.2243C22.7628 45.2164 22.7785 45.2085 22.7864 45.2007C22.8258 45.1691 22.8573 45.1376 22.9204 45.0982C23.5113 44.7437 24.2519 44.7437 24.827 45.114C25.3313 45.437 25.6385 46.0043 25.6385 46.6188C25.6307 46.9655 25.5361 47.2964 25.347 47.5801ZM39.4894 37.0934C38.8434 37.7316 37.7955 37.8104 37.0707 37.2825L32.5404 33.934L30.7755 32.6261C30.4761 32.4055 30.0507 32.4685 29.8222 32.7679C29.6016 33.0673 29.6646 33.4928 29.964 33.7213L33.0525 36.0061L35.6682 37.9443C36.1252 38.2831 36.4167 38.7794 36.4876 39.3467C36.5585 39.914 36.3931 40.4655 36.0228 40.9067C35.3452 41.7104 34.1476 41.8601 33.2888 41.2534L27.8604 37.3691C27.5531 37.1485 27.1276 37.2194 26.9149 37.5267C26.6943 37.834 26.7652 38.2595 27.0725 38.4722L32.2646 42.1831C32.6664 42.4746 32.9185 42.9237 32.9658 43.4122C33.0052 43.9085 32.8319 44.3891 32.4773 44.7437C31.8864 45.3425 30.9331 45.3976 30.2634 44.8934L25.1422 40.9067C24.8428 40.6782 24.4173 40.7255 24.1888 41.0249C23.9604 41.3164 24.0076 41.7498 24.2991 41.9782L28.7743 45.4764C29.1998 45.8073 29.4676 46.3037 29.4991 46.8394C29.5385 47.3831 29.3416 47.8952 28.9555 48.2813C28.3252 48.9116 27.2616 48.9825 26.5525 48.4704C26.5525 48.4704 26.5131 48.4231 26.4579 48.3679L26.4737 48.3443C26.8046 47.8401 26.9779 47.2491 26.9779 46.6267C26.9779 45.5473 26.4422 44.5625 25.544 43.9794C24.8585 43.5382 24.0391 43.4043 23.2591 43.5461C23.2591 43.491 23.267 43.4358 23.267 43.3807C23.267 42.3958 22.8179 41.4976 22.0379 40.9146C21.3604 40.4104 20.5488 40.2213 19.7767 40.3316C19.9343 39.197 19.5167 38.0073 18.5319 37.2116C17.8307 36.6364 16.9404 36.3843 16.0422 36.4867C15.924 36.5025 15.8137 36.534 15.7034 36.5576C15.7113 36.4631 15.727 36.3764 15.727 36.2819C15.727 35.1867 15.2385 34.1782 14.3719 33.5007C13.0719 32.4922 11.2834 32.5473 10.0385 33.5243C10.0385 33.5164 10.0385 33.5164 10.0464 33.5085C10.0307 33.5243 10.0149 33.5401 9.99915 33.5479C9.92036 33.611 9.84157 33.6898 9.77066 33.7607C9.70763 33.8237 9.63672 33.8788 9.57369 33.9498V33.5716C9.57369 32.7522 9.18763 31.9879 8.54945 31.5231L8.02945 31.137L9.02218 29.7898L10.2749 28.0879L10.6688 27.5601C10.6925 27.5364 10.7082 27.5128 10.7319 27.4891L15.2307 21.3831L15.5222 21.6273C15.924 21.9819 16.4519 22.1788 16.9955 22.1788H20.2888L18.3979 23.991C17.9567 24.4164 17.7125 24.9916 17.7125 25.6061C17.7125 26.4885 18.201 27.2685 18.9967 27.6388C20.9349 28.5685 23.2276 28.5213 25.1264 27.5207L25.9458 27.0952C26.7179 26.6855 27.6634 26.7801 28.3488 27.3316L36.3458 33.737C36.8107 34.0994 37.2991 34.3988 37.8034 34.6194C37.9688 34.6904 38.1501 34.7613 38.3076 34.8164C38.4494 34.8716 38.5991 34.9188 38.7252 34.9504C38.8985 35.0055 39.0719 35.0449 39.2216 35.0685C39.4264 35.1079 39.6234 35.1394 39.7888 35.1473C39.8676 35.1552 39.9385 35.1552 40.0173 35.1631C39.9858 35.171 39.9622 35.1788 39.9307 35.1867C40.1513 35.8407 39.9937 36.5891 39.4894 37.0934ZM41.2385 33.7843C40.9785 33.8158 40.6949 33.8316 40.3719 33.8237C40.2379 33.8237 40.1119 33.8158 39.9307 33.7922C39.7731 33.7843 39.6313 33.7528 39.4579 33.7213C39.3476 33.7055 39.2373 33.6819 39.0955 33.6346C38.9852 33.611 38.8828 33.5716 38.7804 33.5322C38.6385 33.4849 38.4888 33.4219 38.3549 33.3667C37.961 33.1934 37.567 32.957 37.1967 32.6655L29.6094 26.5831L29.1998 26.2601C28.5537 25.7401 27.7658 25.4722 26.9701 25.4722C26.4028 25.4722 25.8355 25.6061 25.3234 25.8819L24.504 26.3073C22.9834 27.111 21.1476 27.1504 19.5955 26.4019C19.2252 26.2285 19.0913 25.874 19.0913 25.5982C19.0913 25.4328 19.1385 25.1807 19.3591 24.9679L23.2907 21.2019C24.0628 20.4613 25.1579 20.1067 26.2216 20.2643L34.7149 21.517C35.4949 21.6273 36.2985 21.4776 36.9604 21.0994L38.0004 20.5164L39.6707 24.6449L43.2634 33.5007L41.2385 33.7843ZM49.9367 31.7988L45.3119 33.8394C45.1307 33.9182 44.9101 33.8552 44.7761 33.6267L39.8597 21.4855L39.2216 19.9255L38.8591 19.0273C38.7725 18.8225 38.867 18.5861 39.0798 18.4916L43.6967 16.4431C43.7991 16.3958 43.9173 16.3958 44.0197 16.4352C44.1222 16.4746 44.201 16.5534 44.2404 16.6637L50.1494 31.271C50.2282 31.4679 50.1337 31.7043 49.9367 31.7988Z" fill="white"/>
<path d="M26.0018 17.0338C30.4691 17.0338 34.1012 13.4017 34.1012 8.93442C34.1012 4.46715 30.4691 0.827148 26.0018 0.827148C21.5345 0.827148 17.8945 4.45927 17.8945 8.93442C17.9024 13.4017 21.5345 17.0338 26.0018 17.0338ZM26.0018 2.19018C29.7206 2.19018 32.7382 5.21563 32.7382 8.93442C32.7382 12.6532 29.7127 15.6708 26.0018 15.6708C22.283 15.6708 19.2576 12.6453 19.2576 8.93442C19.2576 5.21563 22.283 2.19018 26.0018 2.19018Z" fill="white"/>
<path d="M24.3472 11.4005C24.4733 11.5266 24.6466 11.5975 24.8279 11.5975C25.0091 11.5975 25.1824 11.5266 25.3085 11.4005L29.2715 7.43751C29.5394 7.16963 29.5394 6.74418 29.2715 6.4763C29.0036 6.20842 28.5782 6.20842 28.3103 6.4763L24.8279 9.95872L23.7012 8.83206C23.4333 8.56418 23.0079 8.56418 22.74 8.83206C22.4721 9.09994 22.4721 9.52539 22.74 9.79327L24.3472 11.4005Z" fill="white"/>
</g>
<defs>
<clipPath id="clip0_204_2046">
<rect width="52" height="52" fill="white"/>
</clipPath>
</defs>
</svg>
