<svg width="42" height="42" viewBox="0 0 42 42" fill="none" xmlns="http://www.w3.org/2000/svg">
<path d="M36.1091 36.0368L36.1094 36.0366C36.9482 35.1979 36.9482 33.8329 36.1094 32.994C35.7031 32.5878 35.1626 32.3638 34.5878 32.3638C34.0134 32.3638 33.4729 32.5878 33.0664 32.9944C32.2278 33.8329 32.2278 35.1979 33.0666 36.0367C33.9056 36.8753 35.2704 36.8753 36.1091 36.0368ZM33.7357 35.3675C33.5082 35.14 33.3828 34.8374 33.3828 34.5153C33.3828 34.1935 33.5082 33.8906 33.7357 33.6631C33.9635 33.4356 34.2662 33.3101 34.5882 33.3101C34.91 33.3101 35.2125 33.4355 35.4403 33.6631C35.9101 34.1331 35.9101 34.8975 35.4401 35.3675C34.9702 35.8375 34.2057 35.8374 33.7357 35.3675Z" fill="white"/>
<path d="M39.8624 9.23381C39.8629 9.2332 39.8635 9.2328 39.864 9.23228C39.865 9.23127 39.8659 9.23014 39.867 9.22912L39.9967 9.0994L39.9934 9.09613C41.9218 7.02685 41.8795 3.77498 39.8636 1.75925C38.8656 0.761134 37.5387 0.211426 36.1272 0.211426C34.7786 0.211426 33.5079 0.714264 32.5267 1.62952L32.5236 1.62637L32.3937 1.75614C32.3927 1.75722 32.3916 1.75814 32.3906 1.75922C32.3901 1.75972 32.3896 1.76028 32.3891 1.76085L1.34506 32.8048L1.35715 32.8169C1.18362 32.9288 1.0579 33.1126 1.02772 33.3331L0.00677158 40.7903C-0.0243097 41.0176 0.0527219 41.2462 0.214868 41.4085C0.353308 41.5468 0.54022 41.6231 0.733376 41.6231C0.766414 41.6231 0.799663 41.6208 0.832912 41.6163L8.28986 40.5951C8.51054 40.5651 8.69429 40.4392 8.8062 40.2657L8.81826 40.2778L39.8624 9.23381ZM36.1272 1.67811C37.1468 1.67811 38.1055 2.07522 38.8265 2.79629C40.1377 4.10736 40.294 6.14289 39.2953 7.62656L33.9958 2.32722C34.6204 1.90504 35.3565 1.67811 36.1272 1.67811ZM32.5236 3.70052L37.9225 9.09938L8.81826 38.2036L6.78714 36.1726L30.1493 12.8107L28.7507 11.4124L5.38888 34.7744L3.41926 32.8048L32.5236 3.70052ZM1.5909 40.0322L2.43168 33.8913L7.73164 39.1912L1.5909 40.0322Z" fill="white"/>
<path d="M11.7273 18.7011L13.0655 17.3629L2.35676 6.65414L6.72633 2.28445L8.7982 4.35651L7.29499 5.85951L8.48173 7.04618L9.98494 5.54327L11.1929 6.75113L9.68968 8.25425L10.8765 9.44081L12.3798 7.9379L13.5876 9.14597L11.3637 11.3693L12.5508 12.5561L14.7744 10.3325L16.2472 11.8052L14.744 13.3087L15.9308 14.4952L17.434 12.992L17.435 12.9931L18.7732 11.6549L7.39532 0.277222C7.02579 -0.0924074 6.42678 -0.0924074 6.05725 0.277222L0.349505 5.98503C-0.0201476 6.35459 -0.0201476 6.95369 0.349505 7.32323L11.7273 18.7011Z" fill="white"/>
<path d="M41.6988 34.5791C41.6817 34.5619 41.664 34.5455 41.646 34.5299L29.7394 22.6235L26.1775 26.1855L27.3618 27.3698L29.5856 25.1461L39.6897 35.25L35.3199 39.6196L24.0316 28.3313L22.6934 29.6697L34.6507 41.6269C35.0203 41.9966 35.6193 41.9966 35.9889 41.6269L41.697 35.9193C41.6975 35.9185 41.6981 35.9181 41.6988 35.9173C42.0685 35.5479 42.0685 34.9486 41.6988 34.5791Z" fill="white"/>
</svg>
