<svg width="46" height="46" viewBox="0 0 46 46" fill="none" xmlns="http://www.w3.org/2000/svg">
<g clip-path="url(#clip0_204_2150)">
<path d="M37.7257 6.04952C36.7215 5.77918 35.6716 5.91781 34.7697 6.4398C32.9106 7.51586 32.2665 9.90687 33.3336 11.77C33.8511 12.6734 34.6888 13.3198 35.6926 13.59C36.0281 13.6804 36.3686 13.725 36.7072 13.725C37.3818 13.725 38.0482 13.5474 38.6488 13.1998C40.5078 12.1238 41.152 9.73275 40.0849 7.86966C39.5673 6.9661 38.7294 6.31977 37.7257 6.04952ZM37.9736 12.0334C37.3841 12.3744 36.6985 12.4651 36.0429 12.2887C35.3878 12.1124 34.8409 11.6903 34.5029 11.1002C33.8034 9.87893 34.2259 8.3116 35.4446 7.60615C35.8373 7.37893 36.2727 7.26286 36.7135 7.26286C36.9343 7.26286 37.1566 7.29197 37.3753 7.35081C38.0303 7.52718 38.5773 7.94926 38.9154 8.53936C39.6149 9.76069 39.1924 11.328 37.9736 12.0334Z" fill="white"/>
<path d="M45.4731 11.8751L44.22 10.7954C44.3188 10.0524 44.3076 9.30736 44.187 8.57154L45.3676 7.55846C45.89 7.11023 46.021 6.35159 45.6792 5.75458L44.5952 3.86238C44.2517 3.26295 43.5299 2.99494 42.8788 3.22521L41.321 3.77586C40.7324 3.32386 40.085 2.96439 39.3883 2.70277L39.1072 1.17273C38.9825 0.493063 38.3912 0 37.7016 0C37.7015 0 37.7013 0 37.7012 0L35.5241 0.000269531C34.836 0.000449219 34.2437 0.492434 34.1158 1.16995L33.8076 2.80295C33.1293 3.08739 32.4768 3.48064 31.9078 3.94836L30.4484 3.43194C29.799 3.2023 29.0768 3.46914 28.7312 4.06714L27.638 5.95952C27.2931 6.55653 27.4211 7.31571 27.9424 7.76475L29.1955 8.8444C29.0968 9.58732 29.1079 10.3324 29.2286 11.0683L28.048 12.0814C27.5256 12.5296 27.3945 13.2882 27.7364 13.8853L28.8202 15.7774C29.1636 16.3768 29.8852 16.645 30.5367 16.4146L32.0945 15.864C32.6832 16.316 33.3306 16.6754 34.0272 16.9371L34.3083 18.4673C34.4332 19.1468 35.0245 19.6398 35.7143 19.6398L37.8913 19.6396C38.5795 19.6394 39.1717 19.1474 39.2996 18.4698L39.6078 16.8368C40.2859 16.5523 40.9388 16.1591 41.5077 15.6914L42.9673 16.2078C43.6166 16.4376 44.3389 16.1703 44.6842 15.5726L45.7775 13.6801C46.1223 13.0832 45.9942 12.3241 45.4731 11.8751ZM44.6106 13.0061L43.5173 14.8985C43.4966 14.9344 43.4543 14.9505 43.4167 14.9374L41.5874 14.2901C41.3525 14.2069 41.0909 14.2603 40.9073 14.4286C40.2942 14.9907 39.5693 15.4291 38.7869 15.7108C38.5622 15.7916 38.3972 15.9853 38.3529 16.2199L37.9754 18.22C37.9675 18.2616 37.9321 18.2919 37.8912 18.2919L35.7143 18.2922C35.6749 18.2922 35.6411 18.2633 35.6338 18.2236L35.2817 16.307C35.2366 16.0617 35.0596 15.8613 34.8217 15.7862C34.0233 15.5342 33.2969 15.1318 32.6629 14.5904C32.4531 14.4303 32.2325 14.3894 32.0007 14.4676L30.0874 15.1439C30.05 15.1573 30.0096 15.1423 29.9897 15.1075L28.9059 13.2154C28.8849 13.1787 28.893 13.1318 28.9256 13.104L30.4024 11.8366C30.5907 11.6751 30.6749 11.4232 30.6218 11.1809C30.4426 10.364 30.4293 9.52973 30.5822 8.7011C30.6257 8.46553 30.5409 8.22457 30.3595 8.06833L28.8221 6.74376C28.7908 6.71681 28.7836 6.67054 28.805 6.63361L29.8982 4.74123C29.9189 4.70548 29.9612 4.68922 29.9988 4.70224L31.8282 5.34957C32.0629 5.43258 32.3246 5.3793 32.5084 5.21094C33.1212 4.64896 33.8462 4.21017 34.6285 3.92887C34.8532 3.8481 35.0183 3.65439 35.0626 3.41981L35.4401 1.41962C35.448 1.37793 35.4834 1.34766 35.5244 1.34766H37.7015C37.7408 1.34766 37.7745 1.37641 37.7817 1.41621L38.1339 3.33284C38.179 3.57812 38.356 3.77856 38.5938 3.85367C39.3925 4.10577 40.1188 4.508 40.7527 5.0494C40.9356 5.20546 41.1879 5.25236 41.4148 5.17221L43.3282 4.49587C43.3661 4.48257 43.406 4.49767 43.4259 4.53235L44.5097 6.42446C44.5307 6.46111 44.5225 6.50801 44.49 6.53586L43.0132 7.8032C42.8248 7.96474 42.7407 8.21666 42.7938 8.45897C42.9729 9.27565 42.9863 10.1099 42.8333 10.9387C42.7898 11.1743 42.8746 11.4153 43.056 11.5715L44.5934 12.8961C44.6246 12.9229 44.6318 12.9693 44.6106 13.0061Z" fill="white"/>
<path d="M9.77728 24.269C9.77692 23.0722 8.7837 22.0143 7.56874 22.0198L7.18942 22.0188L7.18664 18.6487C7.18565 17.6253 5.58948 17.8666 5.83916 18.8208L5.84177 22.0153C5.1966 22.0136 4.55134 22.0119 3.90617 22.0102L3.89656 10.4613C3.89647 10.3419 3.86467 10.2247 3.80447 10.1217L2.19986 7.37779L2.19896 3.75843L7.52634 3.78323L7.52723 7.35919L5.92361 10.1158C5.8636 10.2188 5.83206 10.3359 5.83215 10.4551L5.83584 14.8977C5.61033 15.8354 7.18448 16.0012 7.18358 15.0563L7.17999 10.6362L8.78352 7.87975C8.84345 7.77679 8.87498 7.65981 8.87498 7.54077L8.87318 0.673648C8.87318 0.326133 8.55226 0 8.19738 0L1.52235 0.0194961C1.15695 0.0204844 0.851126 0.326223 0.850497 0.691797L0.852294 7.56062C0.852294 7.68011 0.884098 7.79745 0.944384 7.90059L2.54908 10.6447L2.55852 22.0066L2.17866 22.0056C-0.44487 22.0132 -0.779179 26.0604 1.80077 26.5104L1.77885 39.9434C1.77301 44.058 7.95345 44.0267 7.95902 39.9593L7.98104 26.4867C9.00265 26.2867 9.77764 25.3677 9.77728 24.269ZM2.1986 2.41078L2.19833 1.36518L7.52562 1.34954L7.52589 2.43557L2.1986 2.41078ZM4.87711 41.7631C3.91695 41.7631 3.12516 40.8863 3.12651 39.9456L3.14843 26.5407L6.63329 26.5306L6.61137 39.9574C6.61002 40.9502 5.83197 41.7603 4.87711 41.7631ZM7.56587 25.1801L2.17938 25.1959C1.08966 25.1959 1.09909 23.3564 2.17884 23.3534L7.56892 23.3675C8.65019 23.3675 8.65792 25.1769 7.56587 25.1801Z" fill="white"/>
<path d="M43.1401 38.1933L43.1388 35.214C43.1368 30.3225 40.9279 25.7586 37.0786 22.6925C36.6943 22.3863 36.0456 22.3552 35.6294 22.6234C34.1589 21.625 32.5477 20.9007 30.8254 20.4651C30.8934 20.1035 30.8201 19.6061 30.4621 19.42C28.3184 18.3063 25.7592 18.3072 23.6166 19.4229C23.2587 19.6092 23.1859 20.1073 23.2542 20.4688C22.4639 20.6694 21.697 20.9305 20.9564 21.2513L21.0224 13.3175C23.7678 12.6366 25.2178 10.8627 25.2256 8.15924C25.2344 5.16475 23.4568 1.71664 21.091 0.138804C20.519 -0.0927237 20.1698 0.0934325 20.0433 0.697452L20.0269 6.29795C20.0023 6.5992 19.8422 6.76505 19.5466 6.7956L16.7048 6.7814C16.4392 6.78005 16.2238 6.55347 16.2247 6.27612L16.2409 0.67553C16.1185 0.07187 15.7709 -0.116712 15.1982 0.109784C12.8223 1.66462 11.024 5.09584 11.0152 8.09105C11.0074 10.7921 12.4455 12.5793 15.1835 13.2878L15.1091 24.4765C12.4423 27.4069 10.9516 31.2068 10.9533 35.2275L10.9546 38.1992C8.29756 39.0104 8.81138 43.078 11.652 43.078C13.6395 43.078 15.4981 43.6689 17.2331 44.6006C18.9752 45.516 20.9369 45.9998 22.9062 45.9998H22.9113L31.19 45.9963C33.1612 45.9954 35.1243 45.51 36.8671 44.5924C38.6004 43.65 40.4579 43.0659 42.4458 43.0651C45.2478 43.064 45.8414 38.9823 43.1401 38.1933ZM35.0631 23.8694L35.0664 31.7718C35.0666 32.1439 35.3682 32.4454 35.7402 32.4454H35.7405C36.1127 32.4452 36.4143 32.1434 36.4141 31.7713L36.4107 23.8855C39.8312 26.6926 41.7893 30.8089 41.7912 35.2146L41.7926 38.0879H36.4169L36.4156 35.353C36.4154 34.9808 36.1138 34.6794 35.7418 34.6794C35.7417 34.6794 35.7416 34.6794 35.7415 34.6794C35.3693 34.6796 35.0678 34.9814 35.0679 35.3535L35.0691 38.088H30.833L30.8261 21.8595C32.345 22.2834 33.7657 22.9574 35.0631 23.8694ZM29.4779 20.4423L29.4853 38.0878H24.6094L24.602 20.4443C26.1539 19.7631 27.9253 19.7624 29.4779 20.4423ZM23.2617 38.0879H19.0256L19.0196 23.8762C20.3022 22.9729 21.7445 22.2862 23.2548 21.8632L23.2617 38.0879ZM12.363 8.09501C12.369 6.02114 13.4173 3.63148 14.8891 2.11366L14.8771 6.27226C14.8741 7.29117 15.6911 8.12412 16.6982 8.12915L19.5401 8.14334C20.5224 8.14334 21.3719 7.28192 21.3747 6.3019L21.3868 2.14825C22.8499 3.68125 23.8842 6.08143 23.8781 8.15547C23.8717 10.3631 22.6785 11.6569 20.2303 12.1105C19.913 12.1692 19.6819 12.4447 19.6792 12.7674L19.603 21.9187C19.2104 22.1377 18.827 22.3757 18.4522 22.6306C18.0359 22.3628 17.3871 22.3943 17.0031 22.701C16.8198 22.8473 16.6414 22.9979 16.4656 23.1509L16.5348 12.7551C16.5369 12.4312 16.3083 12.1515 15.9903 12.0894C13.543 11.6107 12.3565 10.3042 12.363 8.09501ZM17.6719 23.8933L17.6779 38.0878H12.3022L12.3009 35.2269C12.2992 30.8213 14.2538 26.7033 17.6719 23.8933ZM43.2773 41.3647C43.0577 41.592 42.7622 41.7172 42.4452 41.7174C40.2418 41.7183 38.1656 42.3654 36.2391 43.3999C34.6891 44.2161 32.943 44.648 31.1895 44.6487L22.9107 44.6522C22.909 44.6522 22.9078 44.6522 22.9062 44.6522C21.1545 44.6521 19.4094 44.2218 17.8599 43.4076C15.9934 42.4094 13.807 41.6106 11.652 41.7304C10.1421 41.7304 10.1715 39.4361 11.699 39.4355H18.352H23.9357H30.1592H35.743H42.3961C43.3461 39.4922 44.0192 40.5969 43.2773 41.3647Z" fill="white"/>
</g>
<defs>
<clipPath id="clip0_204_2150">
<rect width="46" height="46" fill="white"/>
</clipPath>
</defs>
</svg>
