<svg width="40" height="41" viewBox="0 0 40 41" fill="none" xmlns="http://www.w3.org/2000/svg">
<g clip-path="url(#clip0_204_1859)">
<path fill-rule="evenodd" clip-rule="evenodd" d="M11.3618 19.5573L17.2 22.4044C17.4469 22.5248 17.6508 22.7181 17.784 22.9583C17.9172 23.1985 17.9732 23.4739 17.9446 23.747C17.9159 24.0201 17.8039 24.2778 17.6237 24.4851C17.4436 24.6924 17.204 24.8393 16.9375 24.9058L10.6352 26.4773C10.4499 26.5232 10.257 26.529 10.0694 26.4944C9.88168 26.4597 9.70356 26.3855 9.54689 26.2765C9.39022 26.1675 9.25861 26.0264 9.16086 25.8624C9.06311 25.6985 9.00146 25.5157 8.98004 25.326C8.78602 23.6424 8.96584 21.9366 9.50667 20.3304C9.56767 20.1503 9.66635 19.9852 9.79615 19.8462C9.92595 19.7072 10.0839 19.5975 10.2594 19.5244C10.435 19.4512 10.6241 19.4163 10.8142 19.422C11.0042 19.4277 11.1909 19.4738 11.3618 19.5573Z" fill="#282828"/>
<path fill-rule="evenodd" clip-rule="evenodd" d="M13.6995 31.5756L18.0449 26.7489C18.2287 26.5448 18.4708 26.4022 18.7384 26.3405C19.006 26.2787 19.2861 26.3007 19.5408 26.4036C19.7954 26.5065 20.0123 26.6852 20.1619 26.9155C20.3115 27.1458 20.3866 27.4166 20.377 27.6911L20.1503 34.1842C20.1435 34.3748 20.0961 34.5618 20.0113 34.7327C19.9264 34.9036 19.8061 35.0544 19.6583 35.175C19.5105 35.2956 19.3386 35.3832 19.1542 35.4321C18.9698 35.4809 18.777 35.4898 18.5889 35.4582C16.9192 35.1768 15.331 34.534 13.9355 33.5749C13.7785 33.4669 13.6464 33.3266 13.548 33.1634C13.4495 33.0003 13.387 32.8179 13.3647 32.6287C13.3424 32.4394 13.3607 32.2476 13.4184 32.066C13.4762 31.8844 13.572 31.7172 13.6995 31.5756Z" fill="#282828"/>
<path fill-rule="evenodd" clip-rule="evenodd" d="M24.0039 25.1529L30.1804 27.1601C30.3616 27.219 30.5282 27.3159 30.669 27.4443C30.8098 27.5727 30.9215 27.7296 30.9968 27.9047C31.0721 28.0797 31.1092 28.2688 31.1055 28.4593C31.1019 28.6498 31.0577 28.8374 30.9758 29.0094C30.2468 30.5378 29.1928 31.8886 27.8874 32.9673C27.7403 33.0887 27.5689 33.1774 27.3848 33.2273C27.2006 33.2772 27.008 33.2873 26.8196 33.2567C26.6313 33.2262 26.4517 33.1558 26.2928 33.0502C26.1339 32.9447 25.9993 32.8064 25.8981 32.6446L22.4553 27.1349C22.3097 26.902 22.2394 26.6299 22.2538 26.3556C22.2682 26.0814 22.3666 25.8182 22.5357 25.6018C22.7048 25.3853 22.9364 25.2262 23.199 25.1459C23.4617 25.0656 23.7427 25.068 24.0039 25.1529Z" fill="#282828"/>
<path fill-rule="evenodd" clip-rule="evenodd" d="M30.2845 21.2126L24.041 23.0027C23.777 23.0784 23.4961 23.071 23.2364 22.9815C22.9767 22.8921 22.7509 22.7249 22.5895 22.5027C22.4281 22.2806 22.339 22.0141 22.3342 21.7395C22.3294 21.4649 22.4092 21.1955 22.5628 20.9678L26.1953 15.5831C26.3016 15.4254 26.4401 15.2922 26.6019 15.1923C26.7636 15.0925 26.9448 15.0282 27.1333 15.0038C27.3218 14.9793 27.5133 14.9954 27.6952 15.0508C27.877 15.1062 28.045 15.1997 28.1878 15.3251C29.4594 16.4455 30.4682 17.8326 31.1422 19.3876C31.2185 19.5625 31.2567 19.7518 31.254 19.9426C31.2513 20.1335 31.2079 20.3216 31.1267 20.4944C31.0456 20.6671 30.9284 20.8206 30.7832 20.9444C30.6379 21.0683 30.4679 21.1597 30.2845 21.2126Z" fill="#282828"/>
<path fill-rule="evenodd" clip-rule="evenodd" d="M15.6957 6.93187C14.592 7.22709 13.5177 7.62287 12.4862 8.11425C12.3199 8.19394 12.1718 8.30718 12.0513 8.44685C11.9308 8.58652 11.8405 8.7496 11.7861 8.92584C11.7317 9.10209 11.7143 9.28768 11.7351 9.47097C11.7558 9.65425 11.8143 9.83126 11.9067 9.99087L18.0091 20.5605C18.1564 20.8156 18.3838 21.015 18.656 21.1277C18.9281 21.2404 19.2299 21.2602 19.5145 21.184C19.799 21.1077 20.0505 20.9397 20.2298 20.706C20.4092 20.4723 20.5064 20.186 20.5065 19.8914V7.68612C20.5067 7.50167 20.4688 7.31915 20.3952 7.15005C20.3215 6.98094 20.2137 6.82889 20.0784 6.70347C19.9432 6.57805 19.7834 6.48196 19.6093 6.42123C19.4351 6.36051 19.2502 6.33647 19.0663 6.35062C17.9274 6.44098 16.7991 6.63555 15.6957 6.93187Z" fill="#282828"/>
</g>
<defs>
<clipPath id="clip0_204_1859">
<rect width="40" height="40" fill="white" transform="translate(0 0.5)"/>
</clipPath>
</defs>
</svg>
