<svg width="40" height="39" viewBox="0 0 40 39" fill="none" xmlns="http://www.w3.org/2000/svg">
<g clip-path="url(#clip0_204_1381)">
<path d="M15.9772 25.0921C16.8928 24.86 17.5203 24.0537 17.5777 23.0348C17.6357 21.9971 17.0549 21.0738 16.1499 20.7442L14.3414 20.0258C7.77424 17.3847 7.74688 17.3848 7.31606 17.3795C6.60656 17.3438 5.94902 17.7059 5.5289 18.3489C5.52828 18.3502 5.52757 18.3515 5.52687 18.3528C4.71999 19.6076 4.55862 22.9938 4.75594 24.8599C4.848 25.6759 4.99804 26.2663 5.21139 26.659C5.56946 27.3268 6.21035 27.739 6.9125 27.7617C6.95853 27.7643 6.99987 27.7669 7.04324 27.7669C7.42335 27.7669 7.99016 27.5921 13.4244 25.8885C15.2616 25.317 15.8018 25.1486 15.9772 25.0921Z" fill="white"/>
<path d="M19.1429 26.3746C18.1552 26.0027 17.0769 26.2511 16.4701 26.9838C16.4693 26.9838 15.335 28.2998 15.2197 28.4292C15.2144 28.4351 15.209 28.441 15.2037 28.4474C10.6084 33.7055 10.5963 33.7399 10.4523 34.1451C10.3476 34.4194 10.3109 34.712 10.3436 34.9747C10.3823 35.37 10.551 35.7465 10.8484 36.0976C11.9147 37.3395 16.3687 39.0001 18.4286 39.0001C18.59 39.0001 18.7366 38.9896 18.8661 38.9682C19.6336 38.8297 20.2157 38.3759 20.4625 37.7231C20.4632 37.7192 20.4646 37.716 20.4659 37.7127C20.6073 37.3193 20.6152 37.2953 20.632 31.1074C20.632 31.1074 20.6459 28.638 20.6493 28.5047C20.7074 27.5768 20.1158 26.74 19.1429 26.3746Z" fill="white"/>
<path d="M34.571 27.4097C34.2269 27.1587 34.2135 27.1496 28.1791 25.2185C28.1791 25.2185 25.8724 24.4754 25.6524 24.3986C25.6503 24.3979 25.649 24.3973 25.6471 24.3966C24.7595 24.0605 23.7618 24.355 23.1076 25.1417C22.4348 25.9422 22.3488 27.024 22.8829 27.8179L23.9012 29.4349C27.6122 35.312 27.6556 35.3458 27.9944 35.6032C28.3398 35.8666 28.7499 36.0005 29.1807 36.0005C29.4568 36.0005 29.7409 35.9459 30.023 35.834C31.6928 35.1845 35.0418 31.0324 35.2959 29.2958C35.4065 28.5423 35.1485 27.8589 34.571 27.4097Z" fill="white"/>
<path d="M24.7046 22.4056C24.7493 22.4153 24.7954 22.4192 24.8413 22.4192C24.9206 22.4192 25.0007 22.4056 25.078 22.3769C25.3702 22.2689 25.9803 22.1239 26.9506 21.8997C26.9513 21.8997 26.9519 21.8997 26.9533 21.899C33.8173 20.2781 33.8639 20.2488 34.2394 20.0115C34.8229 19.6279 35.1336 18.9803 35.0956 18.2345C35.0962 18.1962 35.0943 18.1481 35.0916 18.1201C34.8976 16.3197 31.9234 12.0415 30.3363 11.2847C29.6308 10.9564 28.8819 10.9921 28.2917 11.3789C27.9289 11.6084 27.9289 11.6084 24.1671 16.6246C24.1671 16.6246 22.6527 18.633 22.5807 18.7267C21.9771 19.4445 21.9539 20.4575 22.5214 21.3079C23.0321 22.0694 23.8757 22.4862 24.7046 22.4056Z" fill="white"/>
<path d="M19.8675 1.47766C19.6701 0.776139 19.1093 0.263735 18.327 0.0712691C16.4305 -0.383837 9.77322 1.43735 8.42681 2.78903C7.89267 3.33321 7.68058 4.04585 7.85868 4.69342C7.86938 4.73243 7.884 4.76946 7.90135 4.80588C8.08874 5.18563 14.1892 14.5483 16.0497 17.4C16.8299 18.6354 17.6862 19.2557 18.5951 19.2557C18.8112 19.2557 19.0293 19.2206 19.25 19.151C20.4177 18.8077 20.9652 17.7335 20.8765 15.9585C20.777 13.7226 19.9935 2.16424 19.8675 1.47766Z" fill="white"/>
</g>
<defs>
<clipPath id="clip0_204_1381">
<rect width="40" height="39" fill="white"/>
</clipPath>
</defs>
</svg>
